<svg width="135" height="43" viewBox="0 0 135 43" fill="none" xmlns="http://www.w3.org/2000/svg">
<g id="Group 956">
<path id="Vector" d="M71.6834 18.7324C72.819 19.1621 73.8346 19.7481 74.6549 20.4931C75.4752 21.2742 76.1421 22.2146 76.6499 23.2692C77.1185 24.3238 77.3529 25.4985 77.3529 26.7903C77.3529 28.0821 77.1185 29.2149 76.6499 30.2724C76.1421 31.3271 75.4752 32.2673 74.6549 33.0095C73.8346 33.7908 72.8162 34.3795 71.6834 34.8091C70.5088 35.2389 69.2588 35.4732 67.8889 35.4732H54.2312V7.70587H74.9674V13.102H59.9398V18.1075H67.8889C69.256 18.1075 70.5088 18.3028 71.6834 18.7324ZM70.7432 24.2095C70.001 23.6235 69.0217 23.311 67.8107 23.311H59.9398V30.2334H67.8107C69.0217 30.2334 70.001 29.9209 70.7432 29.335C71.4854 28.749 71.8369 27.9259 71.8369 26.7932C71.8397 25.6548 71.4854 24.7954 70.7432 24.2095Z" fill="#006DF0"/>
<path id="Vector_2" d="M87.9414 35.4732H82.4783V7.70587H87.9414V19.4774L97.6534 7.70587H104.445L93.3654 21.0426L106.758 35.4732H99.6264L87.9414 22.8786V35.4732Z" fill="#006DF0"/>
<path id="Vector_3" d="M115.145 34.8056C113.385 34.0634 111.858 33.0451 110.57 31.756C109.278 30.4641 108.262 28.9798 107.52 27.2193C106.778 25.4587 106.423 23.5809 106.423 21.586C106.423 19.5911 106.775 17.7133 107.52 15.9527C108.262 14.1922 109.28 12.6687 110.57 11.3769C111.858 10.0851 113.385 9.06949 115.145 8.32731C116.906 7.58514 118.862 7.23358 120.974 7.23358C122.539 7.23358 124.063 7.46796 125.511 7.9367C126.959 8.4445 128.287 9.11133 129.5 9.97073C130.676 10.8691 131.691 11.8875 132.55 13.0984C133.41 14.3121 134.037 15.6793 134.428 17.1664H128.287C128.013 16.4633 127.623 15.8356 127.112 15.2887C126.605 14.7418 126.016 14.2731 125.352 13.8797C124.688 13.5281 124.02 13.2156 123.279 13.0203C122.536 12.825 121.752 12.7078 120.971 12.7078C119.641 12.7078 118.429 12.9422 117.372 13.3719C116.278 13.8406 115.338 14.4656 114.557 15.2887C113.775 16.109 113.187 17.0493 112.757 18.1039C112.327 19.1586 112.132 20.3333 112.132 21.586C112.132 22.8387 112.327 24.0107 112.757 25.068C113.187 26.1227 113.772 27.063 114.557 27.8833C115.338 28.7036 116.278 29.3314 117.372 29.7611C118.426 30.2298 119.641 30.4641 120.971 30.4641C121.752 30.4641 122.536 30.347 123.279 30.1516C124.02 29.9564 124.688 29.6438 125.352 29.2533C126.016 28.9017 126.605 28.433 127.112 27.8833C127.62 27.3364 128.01 26.7086 128.287 26.0056H134.428C134.037 27.4927 133.413 28.8208 132.55 30.0345C131.688 31.2482 130.673 32.3029 129.5 33.1622C128.29 34.0606 126.959 34.7274 125.511 35.1962C124.063 35.704 122.539 35.9384 120.974 35.9384C118.862 35.9412 116.906 35.5505 115.145 34.8056Z" fill="#006DF0"/>
<mask id="mask0_40_898" style="mask-type:alpha" maskUnits="userSpaceOnUse" x="0" y="0" width="44" height="43">
<g id="mask0">
<path id="Vector_4" d="M22.0105 42.8797C33.7375 42.8797 43.2441 33.3732 43.2441 21.6462C43.2441 9.91924 33.7375 0.412659 22.0105 0.412659C10.2836 0.412659 0.776978 9.91924 0.776978 21.6462C0.776978 33.3732 10.2836 42.8797 22.0105 42.8797Z" fill="#C4C4C4"/>
</g>
</mask>
<g mask="url(#mask0_40_898)">
<g id="Group">
<path id="Vector_5" d="M32.3967 2.67346C43.0053 8.66031 46.8498 21.9406 40.9827 32.3375C35.1157 42.7343 21.7603 46.3058 11.1517 40.319C0.543085 34.3321 -3.30141 21.0519 2.56562 10.655C8.43266 0.258111 21.7881 -3.31337 32.3967 2.67346Z" fill="url(#paint0_linear_40_898)"/>
<path id="Vector_6" d="M32.3967 2.67346C43.0053 8.66031 46.8498 21.9406 40.9827 32.3375C35.1157 42.7343 21.7603 46.3058 11.1517 40.319C0.543085 34.3321 -3.30141 21.0519 2.56562 10.655C8.43266 0.258111 21.7881 -3.31337 32.3967 2.67346Z" fill="url(#paint1_linear_40_898)"/>
<path id="Vector_7" d="M12.1227 29.8772C4.11609 22.0294 3.34997 10.4597 10.4093 4.03821C17.4688 -2.38324 29.6819 -1.22711 37.6886 6.62072C45.6952 14.4686 46.4612 26.0355 39.3991 32.4598C32.3369 38.884 20.1265 37.725 12.1227 29.8772Z" fill="url(#paint2_radial_40_898)"/>
<path id="Vector_8" d="M20.5425 21.6958C12.4002 17.0343 8.50907 9.12622 11.8503 4.0375C15.1916 -1.05121 24.5035 -1.40014 32.6458 3.26149C40.7882 7.92312 44.6792 15.8312 41.3352 20.9226C37.9912 26.0141 28.6849 26.3603 20.5425 21.6958Z" fill="url(#paint3_radial_40_898)"/>
</g>
</g>
</g>
<defs>
<linearGradient id="paint0_linear_40_898" x1="21.087" y1="43.2194" x2="21.8074" y2="2.84969" gradientUnits="userSpaceOnUse">
<stop stop-color="#4581E9"/>
<stop offset="0.479167" stop-color="#80ACF0"/>
<stop offset="1" stop-color="white"/>
</linearGradient>
<linearGradient id="paint1_linear_40_898" x1="55.8056" y1="42.8184" x2="18.8937" y2="9.73349" gradientUnits="userSpaceOnUse">
<stop stop-color="#4581E9"/>
<stop offset="1" stop-color="#4581E9" stop-opacity="0"/>
</linearGradient>
<radialGradient id="paint2_radial_40_898" cx="0" cy="0" r="1" gradientUnits="userSpaceOnUse" gradientTransform="translate(48.7853 24.0771) rotate(-156.356) scale(50.9251 105)">
<stop offset="0.0969745" stop-color="#4581E9"/>
<stop offset="0.459935" stop-color="#80ACF0"/>
<stop offset="0.794216" stop-color="#F0F6FD"/>
</radialGradient>
<radialGradient id="paint3_radial_40_898" cx="0" cy="0" r="1" gradientUnits="userSpaceOnUse" gradientTransform="translate(65.4035 4.30174) rotate(176.049) scale(44.7957 53.7318)">
<stop stop-color="#4581E9"/>
<stop offset="0.536835" stop-color="#87B1F0"/>
<stop offset="0.805657" stop-color="#CCE0FD"/>
<stop offset="1" stop-color="#F0F6FD"/>
</radialGradient>
</defs>
</svg>
