<svg width="144" height="71" viewBox="0 0 144 71" fill="none" xmlns="http://www.w3.org/2000/svg">
<g id="PochtaBank logo 1" clip-path="url(#clip0_40_911)">
<g id="Group">
<path id="Vector" fill-rule="evenodd" clip-rule="evenodd" d="M0.799316 70.5159H69.9893V0.503601H0.799316V70.5159Z" fill="#001689"/>
<g id="Group_2">
<path id="Vector_2" fill-rule="evenodd" clip-rule="evenodd" d="M21.8046 23.124C22.3152 24.2651 23.1509 25.4357 25.4385 27.0158C25.9456 27.3698 26.5102 28.105 26.0841 29.1399C25.6498 30.1736 24.8458 31.6416 25.3247 32.2163C25.8094 32.7874 27.5325 33.086 28.9328 32.5172C28.9328 32.5172 29.2262 33.4117 29.7415 33.9852C29.7415 33.9852 29.4985 34.4784 28.6922 34.2294C28.6922 34.2294 28.9856 34.9646 28.5807 35.7552C28.5807 35.7552 27.6417 35.5924 27.2379 34.7191C27.2379 34.7191 26.8588 35.3989 26.1064 35.6443C26.1064 35.6443 25.4878 35.321 25.6252 34.063C25.6252 34.063 25.1651 35.1829 23.7695 35.3705C23.7695 35.3705 22.9596 34.338 24.0089 32.9503C24.0089 32.9503 23.2554 33.6311 21.888 33.3043C21.888 33.3043 21.6696 32.5962 22.9056 31.6168C22.9056 31.6168 21.5065 31.5613 20.9701 30.3636C20.9701 30.3636 21.5617 29.6272 23.0124 29.7924C23.0124 29.7924 21.6696 29.4915 21.3727 27.8583C21.3727 27.8583 22.341 27.2329 23.8751 28.2395C23.8751 28.2395 23.6028 27.7238 22.9596 27.207C22.3152 26.6877 21.5335 25.2457 21.8046 23.124ZM27.4351 39.5432C27.2459 39.2935 27.0882 39.0212 26.9656 38.7325C27.2074 40.7126 27.2907 42.0473 28.3483 43.33C28.3483 43.33 28.9856 42.4721 28.576 40.3881C28.3735 40.3286 28.1815 40.2378 28.0067 40.1191C28.0067 40.1191 28.2473 40.9652 28.0947 41.816C28.0947 41.816 27.7168 41.5375 27.4351 39.5432ZM25.6064 39.3379C25.423 39.1015 25.2567 38.8523 25.1087 38.5921C25.0219 39.7426 24.7202 42.7671 25.7226 43.7158C25.7226 43.7158 26.4104 43.2072 26.6498 38.7915C26.5055 39.0393 26.2508 39.3025 26.1252 39.4464C26.1252 39.4464 26.293 40.8471 25.7965 41.836C25.7965 41.836 25.3 41.4537 25.6064 39.3379ZM23.2178 41.6508C24.057 40.63 24.3117 37.5725 24.3117 37.5725C24.4291 37.4923 24.5441 37.4073 24.665 37.3117C24.7073 37.2716 24.7566 37.2327 24.8 37.189C24.8 37.2987 24.8047 37.4156 24.8165 37.5312C24.6944 39.3721 24.5512 41.2672 23.9831 42.2113C23.4267 43.1376 22.4021 43.6167 22.4021 43.6167C21.4455 41.8903 22.6016 39.5751 23.5758 37.9643C23.6932 37.9194 23.8141 37.8616 23.9385 37.7991C23.5981 39.0381 22.949 40.5132 23.2178 41.6496V41.6508ZM20.8375 36.3429C20.8313 36.537 20.8665 36.7301 20.9407 36.9093C20.1367 37.707 19.5416 38.4705 18.3515 40.1427C17.1601 41.816 15.2727 41.8832 15.2727 41.8832C15.4558 40.5274 15.8185 39.457 16.8303 38.3018C17.8397 37.1477 19.1308 36.0915 20.0792 35.3941C20.411 35.5413 20.7795 35.5832 21.1356 35.5145C21.0229 35.6616 20.9403 35.8296 20.8926 36.0089C20.1719 36.4255 18.0874 37.4958 17.2423 39.2222C17.2423 39.2222 18.5616 38.7998 20.8375 36.3429ZM19.3445 34.6566L19.4207 34.5126C19.4513 34.4654 19.4747 34.423 19.5076 34.3828C18.7306 34.6861 15.9688 35.7411 15.0755 36.2084C14.1811 36.6804 12.8865 37.7424 12.1846 39.9055C12.1846 39.9055 14.0485 40.073 15.5861 38.7868C17.1261 37.4946 18.9196 35.6986 19.6848 35.1286C19.6189 35.0682 19.5595 35.001 19.5076 34.928C19.5076 34.928 17.4242 36.7925 15.2234 37.5996C15.2234 37.5996 15.6929 36.7335 16.565 36.1069C17.6237 35.3458 18.4172 35.0897 19.3445 34.6566ZM17.7622 33.3786C17.7928 33.3043 17.8233 33.2335 17.8561 33.1674C16.943 33.3538 14.6671 33.6311 13.6471 33.945C12.6306 34.2636 10.7902 35.0153 9.69743 37.1253C9.69743 37.1253 11.3008 37.6244 14.3255 36.1859C17.3503 34.7439 18.2998 34.4442 18.8761 34.2896C18.5388 34.2693 18.2115 34.1673 17.9219 33.9922C16.7153 34.5374 15.1014 35.1794 13.4992 35.223C13.4992 35.223 14.2868 34.659 15.119 34.3026C16.0181 33.925 17.0087 33.5769 17.7622 33.3786ZM17.8409 31.8634C18.1355 32.0039 18.3632 32.0735 18.7505 32.1136C18.5393 32.2528 18.3397 32.4275 18.1613 32.6635C17.0944 32.975 15.2751 33.3137 12.2762 33.5332C9.28076 33.7491 7.67977 33.1945 7.67977 33.1945C8.7244 32.5479 10.3911 31.8917 11.5179 31.6723C12.6447 31.4504 15.6026 31.4764 16.8995 31.297C16.9136 31.3123 17.0709 31.441 17.3268 31.5967C16.2352 31.6959 13.9112 31.8044 12.714 32.4228C12.714 32.4228 14.9253 32.719 17.8409 31.8634ZM17.6144 30.1181C17.7669 30.0285 17.9477 29.9376 18.1719 29.8538C16.6531 29.39 14.5708 28.6454 11.4322 28.4401C9.13286 28.2867 7.47436 28.4212 6.614 28.6454C6.614 28.6454 8.71031 30.1382 11.1024 30.6633C13.4992 31.192 15.4441 30.8592 16.8655 30.8722C16.9571 30.7306 17.065 30.5701 17.2317 30.4108C15.5673 30.4214 12.8032 29.986 11.8137 29.6508C11.8137 29.6508 14.2257 29.1434 17.6144 30.1181ZM17.6073 28.3127C17.6144 28.3563 17.7928 29.2213 18.7846 29.7004C16.6531 28.7564 12.4557 28.2135 10.1975 27.2648C7.14806 25.9809 6.58936 24.3796 6.58936 24.3796C9.23028 24.3088 11.3642 24.9601 13.0097 25.4723C14.9359 26.0682 17.8691 27.1775 18.8949 27.6412C18.4815 27.6553 18.0797 27.7826 17.7329 28.0094C16.3009 27.4524 15.6331 27.2164 14.3326 26.8482C13.3032 26.5567 12.5449 26.5001 11.9029 26.4376C11.9029 26.4376 12.8067 27.0417 14.295 27.5232C15.7704 28.0011 16.4089 28.0802 17.6061 28.3127H17.6073ZM17.4465 25.9585C17.531 26.1107 17.7834 26.4753 17.8831 26.6193C14.5133 26.0481 10.8066 23.4697 9.66105 21.8708C8.51547 20.2706 8.83943 17.8857 8.83943 17.8857C9.95096 18.11 12.3665 20.2187 12.9921 20.8547C13.6189 21.4861 15.5063 23.3482 16.815 24.3855L17.2223 25.5856C16.1426 24.7158 15.0501 23.8621 13.9452 23.0249C13.3067 22.5387 12.3524 21.8472 11.4017 21.5203C11.4017 21.5203 12.2773 22.672 12.9828 23.2361C13.7973 23.8875 14.626 24.4515 15.3068 24.8292C15.9112 25.1666 16.2223 25.3566 17.4465 25.9585Z" fill="white"/>
<path id="Vector_3" fill-rule="evenodd" clip-rule="evenodd" d="M26.9504 35.5027C27.0432 35.4212 27.1314 35.3345 27.2145 35.2431C27.3706 35.4402 27.8918 36.0975 28.15 36.7536C28.3413 37.3129 28.5491 38.0752 28.6524 38.5107C28.7557 38.9437 29.0597 39.8524 29.2475 40.1627C29.2475 40.1627 28.4258 40.2666 27.819 39.5479C27.2216 38.8434 27.0209 38.1342 26.927 37.4073C26.8483 36.8374 26.8777 36.0467 26.9504 35.5039V35.5027ZM25.657 35.6113C25.8096 35.8178 25.9563 35.9016 25.9704 35.911L26.083 35.9688L26.1957 35.9287C26.3014 35.8969 26.3929 35.8591 26.4809 35.8143C26.6018 36.1506 26.6511 36.3122 26.6793 36.5966C26.7169 36.9766 26.7896 37.5761 26.6511 38.0634C26.4809 38.6582 26.1253 39.0228 25.9316 39.2506C25.9316 39.2506 25.394 38.6523 25.2415 38.1602C25.0818 37.6433 25.0243 37.0427 25.2227 36.4267C25.3307 36.0927 25.502 35.7871 25.657 35.6113ZM23.8071 35.6679C24.2692 35.6118 24.7093 35.4375 25.0854 35.1617C25.1558 35.3576 25.2638 35.6207 25.1851 35.9936C25.1006 36.3677 24.8459 36.7795 24.4809 37.0793C23.9233 37.5253 23.1851 37.9466 22.3658 37.8192C22.3658 37.8192 22.178 37.1949 23.8071 35.6691V35.6679ZM23.1851 34.6295C23.2543 35.1829 23.5149 35.531 23.5325 35.5582C23.3423 35.7895 22.6522 36.9872 21.2132 36.789C21.2132 36.789 20.8211 35.9712 21.7813 35.321C22.4292 34.8808 22.7402 34.79 23.1851 34.6295ZM23.3118 33.6028C22.821 33.723 22.3083 33.7202 21.8188 33.5946L21.6521 33.5545L21.6005 33.3916C20.861 34.0017 19.9807 34.1055 19.6791 34.659C19.6791 34.659 20.0488 35.347 21.0089 35.2348C21.438 35.1897 21.8535 35.058 22.2307 34.8475C22.6078 34.637 22.9388 34.3521 23.2038 34.01C23.2238 33.9132 23.2672 33.7291 23.3107 33.604L23.3118 33.6028ZM21.6521 32.7449C21.786 32.5396 21.8799 32.2222 22.1686 31.9012C21.5222 31.7811 20.8585 31.7899 20.2155 31.9272C19.3305 32.0936 18.4267 32.3048 17.9748 33.6713C17.9748 33.6713 18.5405 34.1598 19.5746 33.9486C20.4526 33.7645 21.2143 33.3845 21.6521 32.7449ZM21.2742 31.2663C21.0286 31.0517 20.8323 30.786 20.6991 30.4875L20.6275 30.3176C19.8598 30.0013 19.0605 29.8397 18.2741 30.1323C17.4912 30.4309 17.2858 30.7695 17.0886 31.0669C17.0886 31.0669 17.9572 31.8021 18.9525 31.8269C19.9502 31.8611 20.8728 31.5673 21.2742 31.2675V31.2663ZM21.5066 29.6721C21.6381 29.6214 21.786 29.5742 21.9526 29.5399C21.5308 29.1541 21.2394 28.6454 21.1193 28.0849C20.7624 28.1687 19.9267 28.1687 19.5582 28.0283C19.1885 27.8855 18.4643 27.8784 17.8997 28.2549C17.8997 28.2549 18.0875 29.2591 19.3645 29.6013C20.5711 29.9223 21.0148 29.8397 21.5066 29.6721ZM21.0465 27.7168L21.2143 27.607C21.2378 27.5928 21.523 27.4147 22.0113 27.3757C21.6005 27.0665 20.6169 26.2334 19.9267 25.8334C19.1662 25.4039 17.9079 24.8351 17.2682 24.7489C17.2682 24.7489 17.8692 26.342 18.5652 26.9875C19.2941 27.6554 19.8012 27.902 21.0453 27.7168H21.0465ZM22.3411 26.9828C22.0313 26.5804 21.7906 26.0246 21.6134 25.3673C21.469 24.8351 21.1369 23.5099 20.9409 23.1677C20.7448 22.8231 20.0371 21.6242 18.6544 21.2489C18.6544 21.2489 18.2858 22.816 18.9819 24.0515C19.5805 25.1195 20.8117 26.2441 22.3411 26.9828ZM30.0139 34.2566C30.1841 34.4336 30.3156 34.528 30.6243 34.6849C30.6243 34.6849 31.0656 35.5369 30.5304 36.5671C29.994 37.5961 29.5444 38.644 29.3296 39.2305C29.3296 39.2305 29.0421 39.1857 28.7228 37.5761C28.508 36.4845 28.2345 36.2108 27.9481 35.8367C28.2603 35.9948 28.5115 36.042 28.5326 36.0467L28.7463 36.0833L28.8425 35.891C29.0499 35.4923 29.1306 35.0392 29.0737 34.5929C29.5714 34.6059 29.8355 34.3522 29.9388 34.2235C29.9458 34.2094 29.9552 34.2023 29.9599 34.1905L30.0139 34.2566Z" fill="white"/>
<path id="Vector_4" fill-rule="evenodd" clip-rule="evenodd" d="M18.267 21.905C18.2607 22.0689 18.2591 22.233 18.2623 22.3971L18.2905 22.7818C17.4724 21.7268 16.497 20.4571 15.5651 19.2841C14.9254 18.4817 14.3843 17.9955 13.7857 17.6037C14.2869 19.0906 15.1965 20.2789 15.8362 20.8724C16.4747 21.4625 17.4067 22.462 18.3105 23.0709L18.3973 23.373C18.4678 23.6491 18.5757 23.9335 18.7272 24.2002C18.9361 24.5766 19.2143 24.9472 19.5417 25.3059C19.2788 25.1737 18.9783 25.0309 18.6732 24.9011L18.3938 24.7831C15.9031 23.4473 13.4383 20.6801 12.437 18.7543C11.4347 16.8296 11.8537 14.5946 12.1166 13.398C13.2469 14.368 14.8726 16.275 15.5815 17.3146C16.4548 18.5867 17.5745 20.391 18.2635 21.8601L18.267 21.905ZM53.1719 30.1181C52.9956 30.0133 52.8102 29.9248 52.6179 29.8538C54.1332 29.39 56.219 28.6454 59.3552 28.4401C61.6557 28.2867 63.3178 28.4212 64.1758 28.6454C64.1758 28.6454 62.0818 30.1382 59.685 30.6633C57.2906 31.192 55.3457 30.8592 53.9243 30.8722C53.8205 30.7042 53.6972 30.5493 53.5569 30.4108C55.2213 30.4214 57.989 29.986 58.9761 29.6508C58.9761 29.6508 56.564 29.1434 53.1731 30.1181H53.1719ZM53.1813 28.3127C53.1731 28.3563 52.9947 29.2213 52.0029 29.7004C54.1344 28.7564 58.3352 28.2135 60.59 27.2648C63.6417 25.9809 64.1992 24.3796 64.1992 24.3796C61.5583 24.3087 59.4244 24.9601 57.7789 25.4723C55.8539 26.0682 52.9196 27.1774 51.8913 27.6412C52.2787 27.6554 52.6977 27.7698 53.0557 28.0094C54.4888 27.4524 55.1555 27.2164 56.4584 26.8482C57.4842 26.5567 58.2425 26.5001 58.8857 26.4376C58.8857 26.4376 57.9831 27.0417 56.4936 27.5232C55.0159 28.0011 54.3785 28.0802 53.1813 28.3127ZM53.3421 25.9585C53.2599 26.1107 53.0052 26.4753 52.9055 26.6193C56.2753 26.0481 59.9832 23.4697 61.1276 21.8708C62.2778 20.2706 61.9504 17.8857 61.9504 17.8857C60.8365 18.1099 58.4221 20.2187 57.7965 20.8547C57.1709 21.4861 55.2823 23.3482 53.9724 24.3855L53.5651 25.5856C54.6849 24.6722 56.0147 23.6562 56.8457 23.0249C57.4819 22.5387 58.4362 21.8472 59.3857 21.5203C59.3857 21.5203 58.5125 22.672 57.8059 23.2361C57.0756 23.8298 56.2983 24.3626 55.4818 24.8291C54.8785 25.1666 54.5687 25.3566 53.3421 25.9585ZM52.524 21.905C52.5287 22.0572 52.5322 22.2212 52.5252 22.3971L52.497 22.7818C53.3139 21.7268 54.2928 20.4571 55.2248 19.2841C55.8645 18.4817 56.4068 17.9955 57.0054 17.6037C56.4983 19.0906 55.5945 20.2789 54.9513 20.8724C54.3128 21.4625 53.3867 22.462 52.4806 23.0709L52.3914 23.373C52.3209 23.6491 52.2153 23.9335 52.0627 24.2002C51.8514 24.5766 51.578 24.9472 51.247 25.3059C51.5099 25.1737 51.8104 25.0309 52.1155 24.9011L52.3949 24.7831C54.8856 23.4473 57.354 20.6801 58.3517 18.7543C59.3493 16.8296 58.9385 14.5946 58.6721 13.398C57.5418 14.368 55.915 16.275 55.2048 17.3146C54.3327 18.5867 53.2165 20.391 52.524 21.8601V21.905ZM21.4455 37.1123C20.4197 38.1507 18.2577 40.479 18.4584 43.0055C18.4584 43.0055 20.4702 42.3706 21.2953 40.879C22.1251 39.391 22.6357 38.4564 22.982 38.1212C22.759 38.1495 22.536 38.1495 22.3188 38.113L22.1381 38.0846C21.6275 39.0251 20.6169 40.5604 19.7084 41.0973C19.7084 41.0973 19.4748 39.8524 22.1486 37.3271C22.185 37.2244 22.2402 37.104 22.3153 36.9742C22.0712 37.0651 21.7918 37.1158 21.4796 37.1111L21.4455 37.1123ZM48.984 23.124C48.4734 24.2651 47.6342 25.4357 45.3548 27.0158C44.8418 27.3698 44.2784 28.105 44.708 29.1399C45.1364 30.1736 45.9463 31.6416 45.4592 32.2163C44.978 32.7874 43.2561 33.086 41.8546 32.5172C41.8546 32.5172 41.5612 33.4116 41.0506 33.9852C41.0506 33.9852 41.2901 34.4784 42.1 34.2294C42.1 34.2294 41.8042 34.9646 42.2056 35.7552C42.2056 35.7552 43.1481 35.5924 43.5484 34.7191C43.5484 34.7191 43.9263 35.3989 44.6822 35.6443C44.6822 35.6443 45.3031 35.321 45.1658 34.063C45.1658 34.063 45.6212 35.1829 47.0227 35.3705C47.0227 35.3705 47.8302 34.338 46.7773 32.9502C46.7773 32.9502 47.5321 33.6311 48.9042 33.3043C48.9042 33.3043 49.119 32.5962 47.8783 31.6168C47.8783 31.6168 49.2821 31.5613 49.8209 30.3636C49.8209 30.3636 49.2269 29.6272 47.7762 29.7924C47.7762 29.7924 49.119 29.4915 49.4147 27.8583C49.4147 27.8583 48.4464 27.2329 46.9147 28.2395C46.9147 28.2395 47.1823 27.7238 47.8267 27.2069C48.4734 26.6877 49.2551 25.2457 48.984 23.124ZM43.3547 39.5432C43.5408 39.2912 43.6987 39.0193 43.8254 38.7325C43.5848 40.7126 43.4967 42.0472 42.4403 43.33C42.4403 43.33 41.8042 42.4721 42.2115 40.3881C42.3922 40.3362 42.5894 40.25 42.7843 40.119C42.7843 40.119 42.5413 40.9651 42.6904 41.816C42.6904 41.816 43.0777 41.5375 43.3547 39.5432ZM45.1834 39.3379C45.3102 39.1762 45.5555 38.8352 45.6811 38.5921C45.7679 39.7426 46.0672 42.7671 45.0648 43.7158C45.0648 43.7158 44.3782 43.2072 44.1352 38.7915C44.282 39.0393 44.5367 39.3025 44.6587 39.4464C44.6587 39.4464 44.4944 40.8471 44.9909 41.836C44.9909 41.836 45.4886 41.4537 45.1834 39.3379ZM47.5731 41.6508C46.728 40.63 46.4757 37.5725 46.4757 37.5725C46.304 37.4565 46.1409 37.3284 45.9874 37.189C45.9874 37.2987 45.9839 37.4156 45.9745 37.5312C46.0919 39.3721 46.2409 41.2672 46.8055 42.2113C47.3619 43.1376 48.383 43.6167 48.383 43.6167C49.3443 41.8903 48.1835 39.575 47.214 37.9643C47.0907 37.9164 46.9704 37.8612 46.8536 37.7991C47.1917 39.0381 47.8396 40.5132 47.5731 41.6496V41.6508ZM49.9476 36.3429C49.957 36.5388 49.9183 36.7028 49.8925 36.7831C49.8798 36.8256 49.8657 36.8677 49.8502 36.9093C50.6495 37.707 51.247 38.4705 52.4371 40.1426C53.6285 41.816 55.5147 41.8832 55.5147 41.8832C55.3351 40.5273 54.9701 39.457 53.9595 38.3018C52.9501 37.1477 51.6613 36.0915 50.7106 35.3941C50.4079 35.5279 50.0743 35.5744 49.7469 35.5287C49.7152 35.527 49.6838 35.5222 49.653 35.5145C49.7786 35.6844 49.8549 35.8532 49.8972 36.0089C50.6155 36.4255 52.7059 37.4958 53.5475 39.2222C53.5475 39.2222 52.227 38.7998 49.9476 36.3429ZM51.4465 34.6566L51.3667 34.5126C51.3422 34.4676 51.3147 34.4242 51.2845 34.3828C52.0592 34.6861 54.8222 35.7411 55.7142 36.2084C56.6075 36.6804 57.8986 37.7424 58.6005 39.9055C58.6005 39.9055 56.7401 40.073 55.2001 38.7868C53.6625 37.4946 51.8667 35.6986 51.1038 35.1286C51.1812 35.0566 51.2388 34.987 51.2834 34.928C51.2834 34.928 53.3656 36.7925 55.564 37.5996C55.564 37.5996 55.0945 36.7335 54.2283 36.1069C53.1649 35.3457 52.3738 35.0897 51.4465 34.6566ZM53.0228 33.3786C52.9965 33.3066 52.9663 33.2361 52.9325 33.1674C53.8445 33.3538 56.1239 33.6311 57.1427 33.945C58.1568 34.2636 59.9996 35.0153 61.0912 37.1253C61.0912 37.1253 59.489 37.6244 56.4607 36.1859C53.4348 34.7439 52.4911 34.4442 51.9137 34.2896C52.3714 34.2554 52.6977 34.0984 52.8679 33.9922C54.0745 34.5374 55.6896 35.1794 57.2906 35.223C57.2906 35.223 56.4983 34.659 55.6708 34.3026C54.8089 33.9374 53.9244 33.6288 53.0228 33.3786ZM52.9501 31.8634C52.6649 32.004 52.3559 32.0888 52.0392 32.1136C52.2505 32.2528 52.4512 32.4275 52.632 32.6635C53.6977 32.975 55.5112 33.3137 58.5125 33.5332C61.5102 33.7491 63.1077 33.1945 63.1077 33.1945C62.0642 32.5479 60.401 31.8917 59.2742 31.6723C58.1451 31.4504 55.1861 31.4764 53.8879 31.297C53.7534 31.4074 53.611 31.5075 53.4618 31.5967C54.5546 31.6959 56.8774 31.8044 58.077 32.4228C58.077 32.4228 55.8645 32.719 52.9501 31.8634Z" fill="white"/>
<path id="Vector_5" fill-rule="evenodd" clip-rule="evenodd" d="M43.837 35.5027C43.7451 35.419 43.6559 35.3325 43.5694 35.2431C43.4168 35.4402 42.8968 36.0975 42.6421 36.7536C42.4473 37.3129 42.2396 38.0752 42.1386 38.5107C42.033 38.9437 41.7254 39.8524 41.54 40.1627C41.54 40.1627 42.3616 40.2666 42.9696 39.5479C43.5682 38.8434 43.7678 38.1342 43.8652 37.4073C43.9301 36.7739 43.9206 36.1351 43.837 35.5039V35.5027ZM45.1281 35.6113C44.9767 35.8178 44.8324 35.9016 44.8171 35.911L44.7079 35.9688L44.5894 35.9287C44.4926 35.8983 44.3984 35.86 44.3077 35.8143C44.2065 36.0647 44.1401 36.328 44.1105 36.5966C44.0694 36.9766 43.9978 37.5761 44.1352 38.0634C44.3089 38.6582 44.6586 39.0228 44.8558 39.2506C44.8558 39.2506 45.3934 38.6523 45.5483 38.1602C45.7068 37.6433 45.7643 37.0427 45.5695 36.4267C45.4741 36.1296 45.3244 35.8531 45.1281 35.6113ZM46.9827 35.6679C46.5203 35.6115 46.0799 35.4373 45.7033 35.1617C45.6352 35.3576 45.5249 35.6207 45.607 35.9936C45.6857 36.3677 45.9415 36.7795 46.3136 37.0793C46.8629 37.5253 47.6047 37.9466 48.4252 37.8192C48.4252 37.8192 48.613 37.1949 46.9827 35.6691V35.6679ZM47.6 34.6295C47.5355 35.1829 47.2737 35.531 47.2526 35.5582C47.4439 35.7895 48.1341 36.9872 49.5813 36.789C49.5813 36.789 49.9663 35.9712 49.0109 35.321C48.3559 34.8808 48.0484 34.79 47.6 34.6295ZM47.4745 33.6028C47.9669 33.7228 48.481 33.7199 48.9722 33.5946L49.1388 33.5545L49.1858 33.3916C49.9276 34.0017 50.8067 34.1055 51.1095 34.659C51.1095 34.659 50.7398 35.347 49.7809 35.2348C49.3515 35.1898 48.9356 35.0581 48.558 34.8477C48.1804 34.6372 47.849 34.3523 47.5836 34.01C47.5582 33.8719 47.5217 33.7362 47.4745 33.604V33.6028ZM49.1388 32.7449C49.0015 32.5396 48.9041 32.2222 48.62 31.9012C49.2665 31.7812 49.9301 31.7901 50.5731 31.9272C51.4581 32.0936 52.3619 32.3048 52.815 33.6713C52.815 33.6713 52.2434 34.1598 51.2105 33.9486C50.3372 33.7645 49.5743 33.3845 49.1388 32.7449ZM49.5133 31.2663C49.7363 31.0705 49.9405 30.8179 50.0884 30.4875L50.1612 30.3176C50.9311 30.0013 51.7316 29.8397 52.511 30.1323C53.2974 30.4309 53.5016 30.7695 53.7035 31.0669C53.7035 31.0669 52.835 31.8021 51.8349 31.8269C50.8372 31.8611 49.9147 31.5673 49.5133 31.2675V31.2663ZM49.282 29.6721C49.136 29.6159 48.9856 29.5717 48.8325 29.5399C49.174 29.2378 49.5086 28.7741 49.6705 28.0849C50.0274 28.1687 50.8642 28.1687 51.2328 28.0283C51.6013 27.8855 52.3244 27.8784 52.8901 28.2549C52.8901 28.2549 52.7058 29.2591 51.4229 29.6013C50.214 29.9223 49.7715 29.8397 49.282 29.6721ZM49.741 27.7168L49.5743 27.607C49.5508 27.5928 49.2644 27.4147 48.7726 27.3757C49.1881 27.0665 50.1659 26.2334 50.8642 25.8334C51.6225 25.4039 52.8784 24.8351 53.5239 24.7489C53.5239 24.7489 52.9206 26.342 52.2211 26.9875C51.4957 27.6554 50.9875 27.902 49.741 27.7168ZM48.4463 26.9828C48.7562 26.5804 48.9968 26.0246 49.174 25.3673C49.3219 24.8351 49.6529 23.5099 49.8501 23.1677C50.0485 22.8231 50.7539 21.6242 52.1366 21.2489C52.1366 21.2489 52.5051 22.816 51.8079 24.0515C51.207 25.1195 49.9792 26.2441 48.4463 26.9828ZM40.7794 34.2566C40.6014 34.435 40.3931 34.5801 40.1644 34.6849C40.1644 34.6849 39.7207 35.5369 40.2583 36.5671C40.7911 37.5961 41.2419 38.644 41.4602 39.2305C41.4602 39.2305 41.7466 39.1857 42.0647 37.5761C42.2818 36.4845 42.5553 36.2108 42.8382 35.8367C42.5271 35.9948 42.2795 36.042 42.2572 36.0467L42.0447 36.0833L41.9461 35.891C41.781 35.5753 41.6963 35.2233 41.6996 34.8667C41.6996 34.7699 41.7043 34.6779 41.7149 34.5941C41.2172 34.6059 40.952 34.3522 40.8534 34.2235C40.8416 34.2094 40.8334 34.2023 40.8275 34.1905L40.7794 34.2566Z" fill="white"/>
<path id="Vector_6" fill-rule="evenodd" clip-rule="evenodd" d="M49.3442 37.1123C50.3689 38.1507 52.5321 40.479 52.3267 43.0055C52.3267 43.0055 50.3173 42.3706 49.4933 40.879C48.6635 39.391 48.1552 38.4564 47.8066 38.1212C48.0273 38.1496 48.2503 38.1496 48.4698 38.113L48.6541 38.0847C49.1623 39.0251 50.1729 40.5604 51.0826 41.0973C51.0826 41.0973 51.3126 39.8524 48.6412 37.3271C48.595 37.205 48.5389 37.087 48.4733 36.9742C48.7163 37.0651 48.9968 37.1158 49.3078 37.1111L49.3442 37.1123ZM33.825 16.9606C33.825 16.7741 34.5292 16.6207 35.3943 16.6207C36.2628 16.6207 36.9636 16.7741 36.9636 16.9606C36.9636 17.1459 36.2617 17.2981 35.3943 17.2981C34.528 17.2981 33.825 17.1447 33.825 16.9606ZM35.7006 17.7052C35.7009 17.7459 35.6932 17.7863 35.678 17.824C35.6627 17.8617 35.6402 17.896 35.6118 17.9249C35.5833 17.9539 35.5495 17.9769 35.5121 17.9926C35.4748 18.0084 35.4347 18.0166 35.3943 18.0167C35.3121 18.0164 35.2333 17.9835 35.1751 17.9252C35.1168 17.8669 35.0838 17.7878 35.0832 17.7052C35.0832 17.5329 35.2241 17.3937 35.3943 17.3937C35.5656 17.3937 35.6994 17.5329 35.6994 17.7052H35.7006ZM33.7111 16.6302C33.1923 15.3711 32.8425 14.44 32.8543 14.1296C32.8637 13.9432 33.0855 13.8028 33.2956 13.7379C33.501 13.6718 33.6853 13.6588 33.8238 13.7662C34.0973 13.9774 34.3473 15.6779 34.4424 16.3835C34.1794 16.4343 34.0198 16.4685 33.7123 16.6302H33.7111ZM34.6665 16.3576C34.7968 16.3399 34.9341 16.334 35.0715 16.3281C34.9699 15.5718 34.8201 14.8229 34.6231 14.086C34.4858 13.6411 34.3132 13.3225 34.0245 13.2422C34.0245 13.2422 34.2475 13.8606 34.3719 14.499C34.494 15.1386 34.5867 15.7487 34.6654 16.3576H34.6665ZM33.0139 18.6115C33.589 18.4746 34.1794 17.8515 34.1794 17.8515C33.2487 17.9872 33.0139 18.6115 33.0139 18.6115ZM33.8766 18.556C33.0726 19.028 32.1747 18.9572 32.1747 18.9572C32.3484 18.6339 32.5115 18.3353 33.0139 17.9731C33.5163 17.6096 34.3355 17.5187 34.6571 17.5636C34.5855 17.8055 34.2581 18.3283 33.8766 18.5548V18.556ZM30.8789 19.8906V19.8257C30.0901 19.9272 29.1605 19.8859 29.1605 19.8859C29.2074 20.1821 29.3295 20.4075 29.5373 20.5456C29.5877 19.8965 30.8789 19.8906 30.8789 19.8906ZM28.2602 19.0351C28.2602 19.0351 29.2579 19.4092 30.2579 19.362C31.2533 19.3101 33.0937 19.29 33.6853 18.9962C33.6853 18.9962 33.5902 19.3761 33.1148 19.5945C33.1148 19.5945 33.3649 19.5945 33.6078 19.8116C33.6078 19.8116 33.4658 20.1243 33.0409 20.2907C33.0409 20.2907 33.8015 21.0884 34.6172 21.0318C34.6172 21.0318 34.2416 21.5038 33.4083 21.322C32.5749 21.1403 32.3073 20.6683 32.1665 20.4866C32.1665 20.4866 32.2744 20.9385 32.2228 21.1203C32.2228 21.1203 31.8566 21.0978 31.5714 20.7344C31.5714 20.7344 31.7791 21.0978 31.8225 21.4047C31.8225 21.4047 31.5925 21.4306 31.1805 21.1852C31.1805 21.1852 31.2662 21.4117 31.2826 21.6713C31.2826 21.6713 30.319 21.3598 29.8518 20.9161C29.8518 20.9161 29.846 21.2229 29.8694 21.3952C29.8694 21.3952 28.3753 21.2418 28.2602 19.0351ZM28.0302 19.1885C28.0666 19.6664 28.1875 20.1373 28.353 20.4712C28.353 20.4712 27.7649 20.0252 27.6217 19.6452C27.475 19.2676 27.4398 19.0068 28.029 19.1885H28.0302ZM26.8482 21.0034C26.9136 21.0034 26.9763 20.9773 27.0225 20.9309C27.0687 20.8844 27.0947 20.8213 27.0947 20.7556C27.0947 20.6899 27.0687 20.6269 27.0225 20.5804C26.9763 20.5339 26.9136 20.5078 26.8482 20.5078C26.8162 20.5083 26.7846 20.5151 26.7552 20.5279C26.7258 20.5406 26.6993 20.5591 26.677 20.5823C26.6548 20.6054 26.6373 20.6327 26.6256 20.6627C26.6139 20.6926 26.6081 20.7246 26.6088 20.7568C26.6088 20.8949 26.7168 21.0046 26.8482 21.0046V21.0034ZM28.2896 20.7131C28.6828 20.8949 29.0337 21.3256 29.0337 21.3256C28.4375 21.4637 28.1734 21.6359 28.1734 21.6359C27.0301 20.8217 26.09 21.6407 26.09 21.6407C25.4714 21.289 25.3529 20.4228 25.6616 19.965C25.9703 19.5048 26.6675 19.5874 26.9973 19.6664C27.2074 20.3367 27.9351 20.5515 28.2884 20.7131H28.2896ZM29.164 21.4743C29.164 21.4743 29.5783 22.036 29.8835 22.2826C29.8835 22.2826 28.3459 22.2684 27.9586 23.6149C27.9586 23.6149 27.4269 22.7888 27.8154 22.2519C28.2344 21.6737 28.6182 21.6029 29.164 21.4743Z" fill="white"/>
<path id="Vector_7" fill-rule="evenodd" clip-rule="evenodd" d="M30.8496 21.8094C30.8496 21.8094 31.3461 21.9569 31.5127 22.0006C31.5127 22.0006 31.5174 21.7103 31.508 21.5699C31.6571 21.6064 31.8426 21.6548 32.0022 21.6713C32.0022 21.6713 32.4963 22.79 32.8849 23.2408C32.8849 23.2408 32.9072 23.4886 32.6912 23.8662C32.6912 23.8662 32.4095 23.2054 31.9059 22.6744C31.6219 22.377 31.44 22.2248 30.8496 21.8094ZM29.5444 21.5699C29.7052 21.6135 30.4986 21.8649 30.8789 22.1457C31.3613 22.4926 31.6923 22.8927 31.6395 23.5818C31.6395 23.5818 31.2522 23.0355 30.8238 22.79C30.4845 22.593 29.8695 22.0501 29.5444 21.5699ZM29.5561 16.5086C29.7017 16.5086 29.9845 16.5794 29.9845 16.8166C29.9845 17.0585 29.6195 17.6344 29.5197 17.8905H29.5103C29.4129 17.6344 29.042 17.0585 29.042 16.8166C29.042 16.5806 29.3296 16.5098 29.4751 16.5098H29.5549L29.5561 16.5086ZM29.2333 18.3684C29.1652 18.0332 29.0338 17.1624 28.8307 16.9712C28.6371 16.7859 28.3495 16.7682 28.2086 16.7765C28.168 16.7795 28.1286 16.7918 28.0934 16.8123C28.0582 16.8329 28.0281 16.8612 28.0053 16.8952C27.9826 16.9292 27.9679 16.9679 27.9622 17.0085C27.9566 17.0491 27.9602 17.0904 27.9727 17.1293C28.0291 17.3299 28.6652 18.294 28.7486 18.4156C28.8965 18.3896 28.8683 18.3991 29.2333 18.3684ZM29.7979 18.3684C29.8683 18.0332 29.9974 17.1624 30.2017 16.9712C30.3942 16.7859 30.6829 16.7682 30.8238 16.7765C30.8645 16.7795 30.9041 16.7917 30.9395 16.8121C30.975 16.8326 31.0054 16.8608 31.0285 16.8947C31.0516 16.9286 31.0668 16.9673 31.073 17.0079C31.0792 17.0485 31.0763 17.09 31.0644 17.1293C31.001 17.3299 30.366 18.294 30.2815 18.4156C30.1359 18.3896 30.1641 18.3991 29.7979 18.3684ZM30.2075 15.3392H29.711V14.7857H29.312V15.3404H28.8108V15.6897H29.3108V16.3399H29.7099V15.6908H30.2075V15.3392ZM24.1968 18.9206C24.1968 18.8109 24.2015 18.7047 24.2179 18.5997C24.2555 18.3283 24.259 18.0981 24.2296 17.9058C23.8717 18.045 23.631 18.1324 23.1381 18.936C23.1381 18.936 23.9233 18.4474 24.1968 18.9206ZM24.8811 20.1916C24.8916 19.9933 25.0219 19.362 25.1862 18.9218C25.3858 18.3731 25.2684 17.5836 25.0266 17.1022C24.7942 16.6396 24.6675 16.2053 24.7062 15.7251C24.7062 15.7251 24.2461 15.882 23.9773 16.0484C23.935 16.6054 24.2555 17.1624 24.4081 17.4786C24.5888 17.8527 24.5513 18.3401 24.5113 18.6398C24.4409 19.1472 24.5442 19.6853 24.8811 20.1916ZM24.9327 15.9375C24.9116 15.8348 24.9168 15.7284 24.948 15.6283C24.948 15.6283 25.6804 14.9085 26.2954 14.7857C26.6828 14.7031 26.9199 14.879 27.0372 14.9746C27.0372 14.9746 26.8225 14.951 26.4938 15.2224C26.1652 15.4902 25.7567 15.8136 25.4515 15.895C25.1452 15.9776 25.0818 15.954 24.9327 15.9375ZM27.0983 15.0288C27.3706 15.3073 27.6053 15.6023 27.5983 15.8572C27.5948 16.1216 27.2908 16.7859 27.1335 17.0373C26.9739 17.2898 26.7403 17.6214 26.7661 18.0238C26.7814 18.2244 26.9187 18.4297 27.083 18.6008C27.083 18.6008 26.1875 18.3861 26.0759 17.8267C25.982 17.3252 26.1933 16.9771 26.3377 16.6998C26.4703 16.4378 26.8823 15.8313 26.9879 15.5787C27.0818 15.3486 27.1335 15.1575 27.0983 15.03V15.0288ZM32.3273 21.3303C32.5034 21.9734 32.8086 22.5753 33.109 23.0473C33.379 23.4803 33.5504 24.1789 33.5257 24.4161C33.5257 24.4161 33.9295 23.5134 33.7253 22.8762C33.5609 22.3805 33.1278 21.6407 32.3273 21.3303ZM33.3344 21.5415C33.3344 21.5415 33.9494 21.5533 34.2358 21.7445C34.6044 21.9899 34.9542 22.5292 35.0915 23.1747C35.0915 23.1747 34.4694 23.065 34.1642 22.757C33.8567 22.4466 33.4788 21.9829 33.3344 21.5415ZM30.1571 22.6638C30.0397 22.6732 29.724 22.7464 29.5702 22.7936C29.5702 22.7936 30.0925 22.9481 30.3543 23.1676C30.5784 23.3529 30.7709 23.6397 30.859 24.1235C30.9869 24.7996 31.3778 25.5277 31.4951 25.746L31.5433 25.7378C31.4728 25.2717 31.7569 24.3064 31.8343 24.166C31.8343 24.166 31.4177 23.904 31.2263 23.6302C31.0855 23.4296 30.8414 23.0945 30.1582 22.6649L30.1571 22.6638ZM32.8778 24.1164C33.0292 24.4704 33.4353 25.1006 33.2452 25.7567C33.0574 26.4128 32.6313 26.6948 32.3707 27.253C32.3707 27.253 32.1665 26.2464 32.2088 25.4711C32.2557 24.6958 32.5351 24.3972 32.8778 24.1164ZM34.0562 24.1424C34.0562 24.1424 34.6666 25.3401 34.7769 25.8086C34.8826 26.2735 34.784 26.5839 34.575 26.8683C34.372 27.1479 34.0187 27.4524 33.6936 28.0436C33.6936 28.0436 33.3168 27.5397 33.2722 27.2766C33.2288 27.0134 33.2992 26.3845 33.3813 26.1225C33.4612 25.8546 33.7828 25.0073 34.0562 24.1424ZM34.3685 27.9645C34.2358 28.112 33.5234 28.9794 33.4271 29.2319C33.3309 29.4833 33.1654 29.9624 33.3849 30.2963C33.6079 30.6303 34.1185 31.1578 34.5586 31.382C34.5586 31.382 34.0774 30.622 34.129 29.9978C34.1572 29.5977 34.4635 29.2425 34.5222 28.9983C34.5809 28.7575 34.5434 28.3457 34.3685 27.9645ZM32.9717 27.4866C33.082 27.64 33.2722 28.0141 33.2992 28.3776C33.3262 28.7351 33.2675 29.023 33.0738 29.5482C32.832 30.2114 32.4517 30.9489 32.2757 31.2828C32.2757 31.2828 31.9412 30.7967 31.7557 30.3636C31.7557 30.3636 32.2792 29.6367 32.5046 29.1245C32.7616 28.5203 32.8684 27.9622 32.9717 27.4866ZM32.7311 27.2069C32.7311 27.2069 32.5034 28.9121 31.5127 30.1771C30.8414 31.0338 30.2967 31.3336 29.9341 31.3336C29.3906 31.3336 28.8425 30.8734 28.6617 30.3471C28.4763 29.8243 28.5373 29.0077 28.8894 28.7186C28.8894 28.7186 29.2134 29.7417 29.9118 29.7783C30.7017 29.8243 31.7146 28.9286 32.7311 27.2058" fill="white"/>
<path id="Vector_8" fill-rule="evenodd" clip-rule="evenodd" d="M31.9164 26.4942C31.9986 26.7987 32.0256 27.266 31.9164 27.7073C31.8343 28.0436 31.6336 28.4791 31.2451 28.7257C30.9105 28.9381 30.1159 28.9877 29.8178 28.2324C29.8178 28.2324 31.2615 28.3422 31.9164 26.4942ZM34.278 33.368C34.4752 33.8813 35.1795 34.5292 35.1771 34.9304C35.1665 35.9889 34.7064 36.6379 34.5984 36.9872C34.5984 36.9872 33.7592 36.3146 33.6102 35.5428C33.5339 35.1463 33.6219 33.9557 34.2792 33.368H34.278ZM33.339 34.1185C33.4353 33.8424 33.7463 33.0919 34.102 32.8323C34.102 32.8323 34.5585 31.4728 33.0902 30.6338C33.0902 30.6338 32.4857 31.4445 32.3273 32.2068C32.1664 32.9739 32.9646 33.4305 33.339 34.1185ZM31.5021 30.6822C31.2674 30.9737 30.9317 31.3714 30.6734 31.4964C30.6734 31.4964 30.5854 32.103 30.6335 32.5077C30.7122 33.1072 31.0889 33.7185 31.2533 34.1657C31.2533 34.1657 31.8953 33.3173 31.9693 32.8193C32.042 32.3189 32.0326 31.9095 32.0573 31.6687C32.0573 31.6687 31.6993 31.0811 31.5021 30.6822ZM29.806 33.5993C29.6241 33.3161 29.0396 32.2894 29.0314 31.5401C29.0314 31.5401 29.7544 31.9295 30.3612 31.6428C30.3612 31.6428 30.4387 32.6175 30.3248 32.9467C30.2262 33.2134 30.1018 33.3727 29.806 33.5993ZM29.9751 33.8058C30.0924 33.7008 30.3812 33.4317 30.5032 33.2913C30.5032 33.2913 30.9821 34.181 31.0643 34.4418C31.0643 34.4418 30.8237 34.5056 30.5584 34.312C30.3479 34.1625 30.1525 33.9925 29.9751 33.8046V33.8058ZM32.2005 33.283C32.143 33.5072 31.366 34.6 31.2321 34.7345C31.2321 34.7345 31.2897 35.1286 31.5796 35.6986C31.866 36.265 32.2662 36.6651 32.4798 36.8657C32.4798 36.8657 32.9622 36.0196 33.1043 35.6502C33.2627 35.223 33.2451 34.8041 33.1782 34.6472C33.0139 34.2778 32.4505 33.7444 32.2005 33.283ZM33.3684 36.1399C33.5397 36.4904 34.0574 37.0675 34.1383 37.5241C34.2029 37.8805 34.1466 38.1732 34.0491 38.4245C33.9517 38.6652 33.643 39.1479 33.4353 39.5149C33.4353 39.5149 32.7252 38.8363 32.5702 38.3537C32.456 37.954 32.4902 37.5262 32.6665 37.1501C32.8355 36.8267 33.2064 36.4762 33.3684 36.1411V36.1399ZM31.3613 36.042C31.5432 36.4503 31.9833 36.8539 32.0831 37.2091C32.2005 37.6303 32.2392 37.8947 32.0385 38.3856C31.8601 38.8127 31.6441 39.0641 31.5725 39.3261C31.5725 39.3261 30.9974 38.5708 30.8988 38.2569C30.8049 37.9431 30.7732 37.4262 30.8929 37.1005C31.008 36.7677 31.2181 36.3429 31.3624 36.042H31.3613ZM34.1982 38.9166C34.1982 38.9166 33.2052 40.1285 33.2287 40.7716C33.2592 41.5705 33.7839 42.1051 33.8566 42.596C33.8566 42.596 34.3754 42.0012 34.575 41.6012C34.798 41.1528 34.9658 40.7716 34.9118 40.2618C34.8485 39.7521 34.717 39.4276 34.1982 38.9166ZM32.3707 38.7974C32.528 39.0299 32.9693 39.8229 32.8449 40.2913C32.7205 40.7657 32.2322 41.4289 32.0667 41.7121C32.0667 41.7121 31.6758 40.8979 31.5854 40.5238C31.4986 40.1545 31.5796 39.5444 32.3707 38.7974ZM35.4036 15.6484C35.4717 15.1929 35.9929 14.2134 35.9929 13.7874C35.9964 13.7059 35.9836 13.6245 35.955 13.5482C35.9265 13.4718 35.8828 13.402 35.8267 13.3431C35.7706 13.2841 35.7032 13.2372 35.6286 13.2051C35.554 13.1731 35.4736 13.1566 35.3925 13.1566C35.3113 13.1566 35.231 13.1731 35.1564 13.2051C35.0818 13.2372 35.0144 13.2841 34.9583 13.3431C34.9022 13.402 34.8585 13.4718 34.83 13.5482C34.8014 13.6245 34.7885 13.7059 34.7921 13.7874C34.7921 14.2134 35.3191 15.1929 35.3837 15.6484H35.4036ZM37.0762 16.6302C37.5997 15.3711 37.946 14.44 37.9331 14.1297C37.9248 13.9432 37.703 13.8028 37.4976 13.7379C37.2863 13.6718 37.0997 13.6588 36.9635 13.7662C36.6936 13.9774 36.4377 15.6779 36.345 16.3835C36.6126 16.4343 36.7711 16.4685 37.0762 16.6302ZM36.122 16.3576C35.9905 16.3399 35.8544 16.334 35.7194 16.3281C35.8015 15.6531 36.0316 14.5273 36.1677 14.086C36.3016 13.6411 36.4729 13.3225 36.7652 13.2423C36.7652 13.2423 36.5398 13.8606 36.4178 14.499C36.3016 15.1156 36.2029 15.7353 36.122 16.3576ZM36.6126 17.8515C36.6126 17.8515 37.1983 18.4746 37.777 18.6115C37.777 18.6115 37.5399 17.9861 36.6126 17.8515ZM36.1314 17.5636C36.4553 17.5188 37.2734 17.6096 37.777 17.9731C38.2805 18.3353 38.4425 18.6339 38.615 18.9572C38.615 18.9572 37.7159 19.028 36.9131 18.556C36.5328 18.3283 36.2053 17.8055 36.1314 17.5636ZM41.2501 20.5456C41.4602 20.4075 41.5787 20.1821 41.6304 19.8848C41.6304 19.8848 40.6984 19.9272 39.905 19.8257V19.8907C39.905 19.8907 41.2008 19.8977 41.2501 20.5456ZM40.9214 21.3952C40.9437 21.2217 40.9355 20.9161 40.9355 20.9161C40.4672 21.3598 39.5071 21.6713 39.5071 21.6713C39.5211 21.4117 39.6033 21.1852 39.6033 21.1852C39.196 21.4306 38.9671 21.4047 38.9671 21.4047C39.0094 21.0978 39.2183 20.7344 39.2183 20.7344C39.0599 20.9451 38.8247 21.0839 38.5645 21.1203C38.5141 20.9385 38.6232 20.4866 38.6232 20.4866C38.4812 20.6683 38.2159 21.1403 37.3791 21.3221C36.5433 21.505 36.1724 21.0318 36.1724 21.0318C36.9858 21.0884 37.7453 20.2907 37.7453 20.2907C37.3227 20.1255 37.1807 19.8116 37.1807 19.8116C37.4272 19.5945 37.6748 19.5945 37.6748 19.5945C37.1983 19.3762 37.0997 18.9974 37.0997 18.9974C37.6971 19.29 39.5341 19.3112 40.5341 19.3632C41.5318 19.4104 42.5259 19.0351 42.5259 19.0351C42.4133 21.2418 40.9202 21.3952 40.9202 21.3952H40.9214ZM42.7607 19.1885C42.7305 19.6322 42.6207 20.0668 42.4367 20.4712C42.4367 20.4712 43.0259 20.0252 43.1668 19.6452C43.31 19.2676 43.3476 19.0068 42.7595 19.1885H42.7607ZM44.1809 20.7568C44.1806 20.6912 44.1545 20.6283 44.1084 20.5819C44.0622 20.5355 43.9997 20.5093 43.9344 20.509C43.8691 20.509 43.8064 20.5351 43.7601 20.5816C43.7139 20.6281 43.6879 20.6911 43.6879 20.7568C43.6879 20.8225 43.7139 20.8856 43.7601 20.932C43.8064 20.9785 43.8691 21.0046 43.9344 21.0046C43.9998 21.0046 44.0625 20.9785 44.1087 20.932C44.1549 20.8856 44.1809 20.8225 44.1809 20.7568ZM43.7912 19.6664C44.1222 19.5862 44.8183 19.506 45.1258 19.965C45.438 20.4229 45.3159 21.289 44.6974 21.6407C44.6974 21.6407 43.7548 20.8205 42.6151 21.6359C42.6151 21.6359 42.3475 21.4637 41.7524 21.3256C41.7524 21.3256 42.1046 20.8949 42.5001 20.7131C42.8511 20.5515 43.5823 20.3355 43.7912 19.6664ZM41.6245 21.4743C41.6245 21.4743 41.2113 22.036 40.9062 22.2826C40.9062 22.2826 42.4426 22.2685 42.8311 23.6149C42.8311 23.6149 43.3628 22.7889 42.972 22.2519C42.5553 21.6737 42.1715 21.6029 41.6245 21.4743Z" fill="white"/>
<path id="Vector_9" fill-rule="evenodd" clip-rule="evenodd" d="M39.9379 21.8094C39.9379 21.8094 39.4414 21.9569 39.2759 22.0006C39.2759 22.0006 39.2677 21.7103 39.2841 21.5699C39.1339 21.6064 38.9496 21.6548 38.7888 21.6713C38.7888 21.6713 38.2912 22.79 37.9062 23.2408C37.9062 23.2408 37.8827 23.4886 38.0987 23.8662C38.0987 23.8662 38.3792 23.2054 38.8804 22.6744C39.1668 22.377 39.3475 22.2248 39.9379 21.8094ZM41.242 21.5699C41.087 21.6135 40.2912 21.8649 39.9062 22.1457C39.4273 22.4926 39.0975 22.8927 39.148 23.5818C39.148 23.5818 39.5377 23.0355 39.9649 22.79C40.3065 22.593 40.9203 22.0501 41.242 21.5699ZM41.2314 16.5086C41.087 16.5086 40.8018 16.5794 40.8018 16.8166C40.8018 17.0585 41.1704 17.6344 41.2678 17.8905H41.2772C41.3746 17.6344 41.7443 17.0585 41.7443 16.8166C41.7443 16.5806 41.4603 16.5098 41.3124 16.5098H41.2314V16.5086ZM41.5565 18.3684C41.6246 18.0332 41.7525 17.1624 41.9591 16.9712C42.1528 16.7859 42.4403 16.7682 42.5835 16.7765C42.6242 16.7791 42.6638 16.7911 42.6991 16.8117C42.7343 16.8322 42.7644 16.8607 42.7869 16.8949C42.8094 16.929 42.8238 16.968 42.8288 17.0087C42.8338 17.0493 42.8294 17.0906 42.8159 17.1293C42.7596 17.3299 42.1223 18.294 42.0366 18.4156C41.8899 18.3896 41.9192 18.3991 41.5565 18.3684ZM40.9908 18.3684C40.9203 18.0332 40.7912 17.1624 40.5858 16.9712C40.391 16.7859 40.1034 16.7682 39.9614 16.7765C39.921 16.7798 39.8818 16.7923 39.8469 16.813C39.812 16.8338 39.7822 16.8621 39.7597 16.8961C39.7372 16.93 39.7227 16.9686 39.7172 17.009C39.7116 17.0494 39.7153 17.0905 39.7278 17.1293C39.7853 17.3299 40.4203 18.294 40.506 18.4156C40.6539 18.3896 40.6234 18.3991 40.9908 18.3684ZM40.5847 15.3392H41.0776V14.7857H41.4767V15.3404H41.9755V15.6897H41.4767V16.3399H41.0776V15.6908H40.5847V15.3392ZM34.6971 12.0551H35.1901V11.5005H35.5951V12.0551H36.0916V12.402H35.5951V13.0558H35.1901V12.402H34.6971V12.0551ZM46.5954 18.9206C46.5914 18.8134 46.5832 18.7063 46.5708 18.5997C46.5349 18.3701 46.5301 18.1367 46.5567 17.9058C46.9158 18.045 47.1565 18.1324 47.6494 18.936C47.6494 18.936 46.8654 18.4474 46.5954 18.9206Z" fill="white"/>
<path id="Vector_10" fill-rule="evenodd" clip-rule="evenodd" d="M45.9064 20.1915C45.8946 19.9933 45.7679 19.362 45.607 18.9218C45.4052 18.3731 45.519 17.5836 45.7596 17.1022C45.9932 16.6396 46.1235 16.2053 46.0801 15.725C46.0801 15.725 46.5437 15.882 46.8101 16.0484C46.8547 16.6054 46.5355 17.1623 46.3829 17.4786C46.1998 17.8527 46.2362 18.34 46.2773 18.6398C46.3477 19.1472 46.2397 19.6853 45.9064 20.1915ZM45.8582 15.9374C45.8751 15.8342 45.8683 15.7285 45.8383 15.6283C45.8383 15.6283 45.1106 14.9084 44.4943 14.7857C44.3642 14.7547 44.2285 14.7557 44.0987 14.7886C43.969 14.8214 43.849 14.8852 43.749 14.9745C43.749 14.9745 43.9673 14.9509 44.2948 15.2223C44.6223 15.4902 45.0284 15.8135 45.3371 15.895C45.6446 15.9776 45.7127 15.954 45.8582 15.9374ZM43.6892 15.0288C43.4168 15.3073 43.1844 15.6023 43.1903 15.8572C43.1938 16.1215 43.4967 16.7859 43.6563 17.0373C43.8159 17.2898 44.0483 17.6214 44.0201 18.0238C44.0061 18.2244 43.8676 18.4297 43.7079 18.6008C43.7079 18.6008 44.6023 18.3861 44.7091 17.8267C44.8077 17.3252 44.5988 16.9771 44.4533 16.6998C44.3195 16.4378 43.9051 15.8312 43.8018 15.5787C43.7079 15.3486 43.6563 15.1574 43.6892 15.03V15.0288ZM38.4625 21.3303C38.2838 21.937 38.0202 22.5151 37.6796 23.0472C37.4073 23.4803 37.2359 24.1789 37.2676 24.4161C37.2676 24.4161 36.8603 23.5134 37.068 22.8761C37.2253 22.3805 37.6584 21.6406 38.4625 21.3303ZM37.4519 21.5415C37.4519 21.5415 36.8415 21.5533 36.5551 21.7445C36.1842 21.9899 35.8297 22.5292 35.6959 23.1747C35.6959 23.1747 36.318 23.0649 36.6255 22.757C36.9331 22.4466 37.3087 21.9828 37.4519 21.5415ZM40.6315 22.6637C40.7513 22.6732 41.0635 22.7463 41.2184 22.7935C41.2184 22.7935 40.6938 22.9481 40.4355 23.1676C40.2125 23.3529 40.0153 23.6396 39.9285 24.1235C39.8041 24.7996 39.4085 25.5277 39.2911 25.746L39.2477 25.7378C39.3181 25.2716 39.0306 24.3064 38.9578 24.1659C38.9578 24.1659 39.3733 23.904 39.5611 23.6302C39.6996 23.4296 39.9484 23.0944 40.6315 22.6649V22.6637ZM37.9108 24.1164C37.7617 24.4704 37.3544 25.1005 37.5411 25.7566C37.7324 26.4128 38.1585 26.6948 38.4167 27.2529C38.4167 27.2529 38.6244 26.2464 38.5787 25.4711C38.5317 24.6958 38.2559 24.3972 37.9096 24.1164H37.9108ZM35.4013 25.9537C35.4307 25.5678 36.3098 24.6427 36.2652 24.1423C36.2194 23.6385 35.561 23.2868 35.3978 23.2125H35.3896C35.2288 23.2868 34.5691 23.6385 34.5222 24.1423C34.4752 24.6427 35.3579 25.5678 35.3837 25.9537H35.4013ZM36.7324 24.1423C36.7324 24.1423 36.122 25.3401 36.0105 25.8086C35.9037 26.2735 36.0035 26.5839 36.2124 26.8682C36.4178 27.1479 36.7676 27.4524 37.0962 28.0436C37.0962 28.0436 37.4706 27.5397 37.5188 27.2765C37.5634 27.0134 37.4894 26.3844 37.4073 26.1225C37.3274 25.8546 37.0023 25.0073 36.7324 24.1423ZM35.4013 28.774C35.6783 28.5309 35.9272 28.1687 36.007 27.9539C36.0833 27.7415 36.1032 27.4288 35.9178 27.1869C35.6959 26.9025 35.4189 26.5803 35.4013 26.3195H35.3872C35.3661 26.5803 35.0915 26.9025 34.8684 27.188C34.683 27.4288 34.703 27.7403 34.7839 27.9551C34.8602 28.1687 35.1102 28.5309 35.3896 28.774H35.4013ZM36.4213 27.9645C36.5551 28.112 37.2676 28.9794 37.3638 29.2319C37.4601 29.4832 37.6232 29.9623 37.4026 30.2963C37.1796 30.6302 36.6737 31.1577 36.2276 31.3819C36.2276 31.3819 36.7089 30.622 36.6608 29.9977C36.6291 29.5977 36.3227 29.2425 36.2652 28.9982C36.21 28.7575 36.2488 28.3457 36.4213 27.9645ZM37.8157 27.4866C37.7054 27.64 37.5164 28.0141 37.4871 28.3775C37.4636 28.7351 37.5211 29.023 37.716 29.5481C37.9601 30.2113 38.3369 30.9489 38.5106 31.2828C38.5106 31.2828 38.8463 30.7966 39.0317 30.3636C39.0317 30.3636 38.5094 29.6366 38.2852 29.1245C38.0258 28.5203 37.9214 27.9622 37.8157 27.4866ZM38.0599 27.2069C38.0599 27.2069 38.2852 28.9121 39.2759 30.1771C39.9461 31.0338 40.493 31.3336 40.8534 31.3336C41.3968 31.3336 41.945 30.8733 42.1292 30.347C42.31 29.8243 42.2537 29.0077 41.9015 28.7186C41.9015 28.7186 41.5752 29.7417 40.8769 29.7783C40.0904 29.8243 39.0752 28.9286 38.0599 27.2057" fill="white"/>
<path id="Vector_11" fill-rule="evenodd" clip-rule="evenodd" d="M38.8709 26.4942C38.7887 26.7987 38.7641 27.266 38.8709 27.7073C38.9542 28.0436 39.1573 28.479 39.5446 28.7257C39.8803 28.9381 40.6679 28.9876 40.9707 28.2324C40.9707 28.2324 39.527 28.3422 38.8709 26.4942ZM35.3943 31.5566C35.5985 31.4563 35.7699 31.3831 36.0081 31.0209C36.1877 30.7377 36.3626 30.2102 36.2664 29.8349C36.1419 29.3712 35.8966 29.1859 35.7464 28.8968C35.6255 29.0124 35.5504 29.1021 35.4013 29.1883H35.3943C35.2429 29.1021 35.1666 29.0112 35.0421 28.8968C34.8896 29.1871 34.6478 29.3712 34.5222 29.8349C34.4259 30.2102 34.5985 30.7365 34.7804 31.0209C35.0151 31.3831 35.19 31.4575 35.3943 31.5566ZM35.3943 34.4324C35.4917 33.9793 36.4283 33.1072 36.3403 32.6305C36.2112 31.9201 35.7581 32.0699 35.4013 31.7702H35.3943C35.0328 32.0699 34.575 31.9201 34.4447 32.6316C34.3625 33.1072 35.2922 33.9793 35.3896 34.4324H35.3943ZM36.5117 33.368C36.3145 33.8813 35.6067 34.5292 35.6126 34.9304C35.6243 35.9889 36.0809 36.6379 36.1912 36.9872C36.1912 36.9872 37.0305 36.3146 37.1772 35.5428C37.2558 35.1463 37.1655 33.9557 36.5117 33.368ZM37.4472 34.1185C37.3509 33.8424 37.0434 33.0919 36.6842 32.8322C36.6842 32.8322 36.2276 31.4728 37.6972 30.6338C37.6972 30.6338 38.3005 31.4445 38.4624 32.2068C38.6221 32.9739 37.8216 33.4305 37.4472 34.1185ZM39.2899 30.6822C39.5235 30.9737 39.8533 31.3713 40.1163 31.4964C40.1163 31.4964 40.2008 32.103 40.155 32.5077C40.0763 33.1072 39.6972 33.7185 39.5376 34.1657C39.5376 34.1657 38.8932 33.3172 38.8169 32.8193C38.7406 32.3189 38.7582 31.9094 38.7348 31.6687C38.7348 31.6687 39.088 31.0811 39.2899 30.6822ZM40.979 33.5993C41.1621 33.3161 41.7525 32.2894 41.7595 31.5401C41.7595 31.5401 41.0341 31.9295 40.4261 31.6428C40.4261 31.6428 40.3487 32.6175 40.4672 32.9467C40.5611 33.2134 40.6867 33.3727 40.979 33.5993ZM40.8123 33.8058C40.6283 33.6447 40.4539 33.4729 40.29 33.2913C40.29 33.2913 39.8064 34.181 39.7266 34.4418C39.7266 34.4418 39.9648 34.5056 40.2289 34.312C40.493 34.1173 40.5505 34.0642 40.8123 33.8046V33.8058ZM38.5869 33.283C38.6455 33.5072 39.4214 34.6 39.5552 34.7345C39.5552 34.7345 39.493 35.1286 39.2054 35.6986C38.9202 36.265 38.5223 36.665 38.3063 36.8657C38.3063 36.8657 37.8274 36.0196 37.6842 35.6502C37.5211 35.223 37.5411 34.8041 37.6138 34.6472C37.7723 34.2778 38.3369 33.7444 38.5869 33.283ZM35.4013 39.745C35.4741 39.4464 35.9236 39.09 36.1079 38.5696C36.2194 38.2628 36.2159 37.9053 36.0962 37.6598C35.9553 37.3719 35.4506 36.6709 35.3943 36.4692C35.3309 36.6698 34.8344 37.3719 34.69 37.6598C34.5691 37.9053 34.5668 38.264 34.6759 38.5696C34.8637 39.09 35.3121 39.4464 35.3872 39.745H35.4013ZM37.419 36.1399C37.25 36.4904 36.7323 37.0674 36.6502 37.5241C36.5856 37.8805 36.6443 38.1732 36.7359 38.4245C36.8333 38.6652 37.149 39.1479 37.3533 39.5149C37.3533 39.5149 38.061 38.8363 38.2171 38.3537C38.3323 37.954 38.2977 37.5257 38.1197 37.15C37.9507 36.8267 37.5821 36.4762 37.419 36.1411V36.1399ZM39.4308 36.042C39.2465 36.4503 38.8052 36.8539 38.7054 37.2091C38.5869 37.6303 38.5493 37.8947 38.7488 38.3856C38.9308 38.8127 39.1409 39.0641 39.2172 39.3261C39.2172 39.3261 39.7923 38.5708 39.8862 38.2569C39.9871 37.943 40.013 37.4262 39.8979 37.1005C39.7782 36.7677 39.5705 36.3429 39.4308 36.042ZM35.3943 45.5367C35.4307 45.1685 36.1854 44.0262 36.2194 42.8143C36.2382 42.2066 35.7053 41.2602 35.4013 40.8979H35.3837C35.0832 41.2602 34.5492 42.2077 34.5668 42.8143C34.6032 44.025 35.3555 45.1685 35.3943 45.5367ZM36.5927 38.9166C36.5927 38.9166 37.5845 40.1285 37.5622 40.7716C37.5328 41.5705 37.0023 42.1051 36.9331 42.596C36.9331 42.596 36.4119 42.0012 36.2147 41.6012C35.9917 41.1528 35.8215 40.7716 35.8849 40.2618C35.9401 39.7521 36.0703 39.4275 36.5927 38.9166ZM38.4178 38.7974C38.2582 39.0299 37.8192 39.8229 37.9436 40.2913C38.0728 40.7657 38.5587 41.4289 38.7207 41.7121C38.7207 41.7121 39.1115 40.8979 39.2019 40.5238C39.2899 40.1545 39.2054 39.5444 38.4167 38.7974" fill="white"/>
<path id="Vector_12" fill-rule="evenodd" clip-rule="evenodd" d="M36.0704 47.4802C36.1315 46.5397 36.6608 45.9744 36.7512 45.4859C36.8568 44.9466 36.8216 44.4309 36.4085 43.8102C36.1559 44.7003 35.824 45.5656 35.4166 46.3957C35.4061 46.4099 35.4014 46.4287 35.3943 46.4453C35.3861 46.4287 35.3826 46.4099 35.3709 46.3957C35.0833 45.8175 34.7171 44.9679 34.3826 43.809C33.9694 44.4309 33.933 44.9466 34.0352 45.4859C34.129 45.9744 34.6572 46.5397 34.7159 47.4802C34.7746 48.4242 33.7265 48.783 33.7265 48.783C34.0786 48.9128 34.4823 48.9718 35.1232 48.357C35.2406 48.246 35.3274 48.1233 35.3943 47.9935C35.4624 48.1233 35.5505 48.246 35.6667 48.357C36.3028 48.9706 36.7101 48.9128 37.0634 48.783C37.0634 48.783 36.0129 48.4242 36.0704 47.4802ZM32.7722 41.2141C32.8802 41.5681 33.2065 42.2195 33.2487 42.4178C33.3274 42.7918 33.2206 43.2438 32.548 43.7241C32.548 43.7241 32.1126 43.4149 31.9388 43.0113C31.7792 42.6302 31.8719 42.3599 32.0386 42.1652C32.2076 41.9693 32.6044 41.5115 32.771 41.2141H32.7722ZM34.1854 42.6101C34.1854 42.7989 34.0469 43.8657 33.7488 44.3979C33.3274 45.1413 32.7088 45.6912 32.1677 45.6912C31.6677 45.6912 31.5597 45.3879 31.3132 45.2664C31.3132 45.2664 31.4388 44.6197 32.0022 44.4522C32.6947 44.2409 33.7558 43.4019 34.1854 42.6101Z" fill="white"/>
<path id="Vector_13" fill-rule="evenodd" clip-rule="evenodd" d="M32.3778 43.9696C32.2628 43.8776 32.1607 43.8186 32.0222 43.6545C32.0222 43.6545 31.4893 43.8528 31.0491 44.1525C30.609 44.4523 30.177 44.9632 29.9458 45.2287C29.9458 45.2287 30.6031 45.3998 31.0221 45.2075C31.0221 45.2075 31.1724 44.5703 31.643 44.2847C31.7463 44.2245 32.075 44.1254 32.3778 43.9696ZM31.8332 43.4244C31.7276 43.2639 31.5198 42.9677 31.5644 42.5028C31.5644 42.5028 30.6371 43.0999 30.3672 43.3206C30.0855 43.5531 29.5057 44.1561 29.3765 44.3555C29.3765 44.3555 30.0784 44.1985 30.6172 44.0156C31.2052 43.8186 31.6125 43.5531 31.8344 43.4244H31.8332ZM30.2639 44.4357C29.7662 44.6186 28.6418 44.7992 28.1746 44.9408C27.7051 45.0824 27.3647 45.3267 26.9164 45.8211C26.9164 45.8211 27.6054 46.017 27.9739 46.1326C27.9739 46.1326 28.5584 45.7314 29.1993 45.4813C29.6183 45.3184 29.8214 44.8771 30.2639 44.4357ZM29.2193 47.7871C29.3272 47.6655 29.4634 47.5275 29.3589 47.2466C29.2862 47.0377 28.8789 46.8135 28.6371 46.6943C28.2345 46.4996 27.1183 46.1964 26.752 46.0878C26.752 46.0878 26.5701 46.3026 26.4762 46.5291C26.434 46.6165 26.4891 46.7073 26.6476 46.7356C26.9586 46.7899 27.7039 46.6483 27.8894 46.7687C28.0819 46.8985 28.0115 47.0708 28.0115 47.2466C28.0115 47.2466 28.3542 47.0318 28.5678 47.0814C28.8683 47.1451 29.0491 47.2891 29.2193 47.7871ZM28.2263 46.2141C28.3061 46.2424 28.7427 46.3757 29.1664 46.6471C29.1664 46.6471 29.3542 46.574 29.4481 46.3993C29.5373 46.2318 29.9176 45.6606 30.2709 45.5851C30.2709 45.5851 29.9716 45.5556 29.7991 45.5001C29.7991 45.5001 29.4376 45.5945 29.1805 45.7007C28.9235 45.8069 28.6042 45.9674 28.2263 46.2141ZM31.1055 45.4931C31.0386 45.5249 30.9235 45.5816 30.6618 45.5934C30.6618 45.5934 29.6817 46.2801 29.5667 46.9693C29.4704 47.5546 29.7756 47.8366 29.9223 47.9086C30.069 47.9865 30.7557 48.2709 31.2017 47.3398C31.2017 47.3398 30.4411 47.5924 30.2345 47.2242C30.0291 46.8525 30.366 46.3156 30.5726 46.161C30.8414 45.9533 31.3297 45.8176 31.6231 45.8683C31.6231 45.8683 31.386 45.6394 31.1043 45.4931" fill="white"/>
<path id="Vector_14" fill-rule="evenodd" clip-rule="evenodd" d="M24.6791 53.3746C24.7977 52.8672 24.9315 52.3385 25.1592 51.85C25.6029 50.8988 26.6898 48.3712 28.9563 47.9228C29.1699 47.8826 28.711 47.3469 28.5102 47.3764C28.3048 47.3988 27.9011 47.6655 27.7238 47.7871C27.7238 47.7871 27.7238 47.2466 27.7168 47.1486C27.7121 47.0472 27.6264 47.0177 27.5384 47.0188C27.4504 47.0212 26.9046 47.0177 26.7285 47.2171C26.2121 47.8236 25.34 49.4521 24.8458 50.6628C24.3505 51.8747 24.0148 52.2488 23.4925 52.0612C22.9713 51.8747 22.6591 51.2694 21.7506 51.4523C21.4349 51.5184 21.084 51.732 20.8116 52.047C20.8868 52.1957 20.9842 52.3763 21.4103 52.3763C21.834 52.3763 22.6439 52.5556 23.0969 52.8766C23.5523 53.1976 24.0277 53.3014 24.6791 53.3746ZM33.7299 45.5332C33.7815 45.9249 33.9693 46.2919 34.1759 46.6719C34.1759 46.6719 33.4834 49.8934 30.9915 50.1436C30.9915 50.1436 31.0397 49.4769 31.778 48.9671C32.5174 48.4597 33.6219 47.6679 33.5433 46.4701C33.5433 46.4701 33.3461 46.5114 32.9916 46.961C32.6371 47.4094 31.8589 48.7063 30.6523 48.7158C30.6523 48.7158 30.8331 48.1092 31.366 47.7587C31.9 47.4094 32.5773 46.961 32.8848 46.4194C33.1923 45.8813 33.5163 45.6323 33.7299 45.532V45.5332ZM32.5538 57.2723L34.0726 59.4247L35.2229 57.3525L34.8168 56.615C34.5151 57.1578 34.1935 57.7455 34.0104 58.0676C33.8684 57.8706 33.4846 57.3254 32.9822 56.615L32.5538 57.2723Z" fill="white"/>
<path id="Vector_15" fill-rule="evenodd" clip-rule="evenodd" d="M32.1666 55.4503C30.6841 53.3533 28.8566 50.7572 28.67 50.4941L29.2439 50.0763L27.4352 49.3742L27.4669 51.372L28.0784 50.9248L31.7358 56.1111L32.1666 55.4503ZM19.6767 43.6686C20.1227 43.1754 20.8786 43.6026 21.6427 44.3141C22.4116 45.0269 22.8916 45.7562 22.4479 46.2482C22.0313 46.7049 21.2448 46.3143 20.4737 45.6051C19.7072 44.8912 19.2248 44.1607 19.6767 43.6675" fill="white"/>
<path id="Vector_16" fill-rule="evenodd" clip-rule="evenodd" d="M20.9103 52.4293C20.8849 52.4103 20.8606 52.3898 20.8376 52.3679C20.4314 52.0092 20.2002 51.4522 20.2002 50.8457C20.2002 49.681 21.1345 48.7322 22.2895 48.7322C23.4398 48.7322 24.3729 49.681 24.3729 50.8457C24.3729 51.0038 24.3435 51.2611 24.3435 51.2611C24.4386 51.0817 24.7814 50.2745 24.8506 50.1247C24.6957 49.5603 24.3614 49.0624 23.8988 48.7068C23.4362 48.3512 22.8706 48.1575 22.2883 48.1552C21.2378 48.1552 20.3282 48.7735 19.895 49.6703C20.0582 48.6024 20.5829 47.6442 20.9538 47.2902C21.3998 46.8666 22.1545 46.7297 22.1545 46.7297C21.658 46.8123 21.0042 46.5031 20.2742 45.821C19.5793 45.1791 19.2248 44.6162 19.2025 44.1454C19.2448 44.8097 19.226 45.1814 19.0382 45.7219C18.787 46.4571 18.0992 47.8153 18.3457 49.3494C18.4795 50.1919 19.0828 51.444 20.0922 52.4682C20.307 52.6972 20.3857 53.0382 20.4127 53.2129C20.4127 53.2129 21.8986 53.2129 22.2508 53.2483C22.2508 53.2483 22.6052 53.2129 22.5994 52.9922C22.5958 52.768 22.3998 52.7113 22.2214 52.7113C22.0453 52.7113 21.3059 52.7302 20.9103 52.4293ZM29.1371 52.9426C28.1793 53.2896 27.2239 53.4784 26.3201 53.6188C25.7515 53.7081 25.1755 53.7397 24.6006 53.7132C24.6164 53.8169 24.6008 53.9229 24.556 54.0176C24.556 54.0176 24.6687 54.1498 24.6687 54.295C25.2285 54.3162 25.8119 54.2832 26.4058 54.1888C27.3988 54.0353 28.4364 53.8347 29.4846 53.4335L29.1371 52.9426ZM30.7029 52.8671C31.9741 52.1685 33.2112 51.084 34.3298 49.3553L34.5293 49.0166C34.223 49.1547 33.8333 49.0544 33.8333 49.0544C33.8098 49.085 33.7629 49.1629 33.7394 49.2089C32.6971 50.7643 31.5433 51.7437 30.366 52.3856L30.7029 52.8671ZM22.3364 53.4194C22.1616 53.3899 21.604 53.4064 21.2707 53.4548C20.9033 53.5149 20.4878 53.5893 20.4432 53.7946C20.4033 53.9893 20.5347 54.1947 20.7202 54.4885C20.834 54.6702 21.1075 54.5652 21.2578 54.5085C21.408 54.4531 22.2672 53.987 22.4022 53.8359C22.543 53.6813 22.5994 53.4642 22.3364 53.4194ZM23.2097 53.9917C23.1284 53.942 23.0372 53.9112 22.9426 53.9014C22.848 53.8916 22.7524 53.9031 22.6627 53.935C22.428 54.0224 21.5829 54.5263 21.5289 54.7658C21.4702 55.0018 21.5876 55.1175 21.7179 55.1717C21.8482 55.2248 22.0066 55.2756 22.1252 55.2874C22.2255 55.2901 22.3252 55.2698 22.4166 55.2278C22.5079 55.1859 22.5885 55.1235 22.6522 55.0455C22.759 54.9098 23.1569 54.4271 23.2097 54.3162C23.2672 54.21 23.2977 54.0519 23.2097 53.9917ZM23.3142 54.5227C23.1372 54.7255 22.9685 54.9353 22.8083 55.1517C22.7696 55.2201 22.8294 55.3287 22.9374 55.3157C23.0419 55.3039 23.6264 55.2449 23.9609 55.0148C24.2942 54.7823 24.5184 54.3351 24.2872 54.1746C24.0572 54.0129 23.698 54.0885 23.313 54.5227H23.3142ZM23.5031 53.2388C23.3905 53.2129 22.9491 53.1019 22.8576 53.2483C22.7355 53.43 22.82 53.6259 23.1628 53.7946C23.5031 53.9575 24.1464 54.0908 24.2778 53.9138C24.3999 53.7309 24.225 53.43 23.5031 53.2388ZM38.0165 41.2141C37.9062 41.5681 37.5811 42.2195 37.5365 42.4178C37.4602 42.7918 37.5634 43.2438 38.2384 43.7241C38.2384 43.7241 38.6726 43.4149 38.8464 43.0113C39.0095 42.6302 38.9168 42.3599 38.7478 42.1652C38.5787 41.9693 38.1855 41.5115 38.0165 41.2141ZM36.5986 42.6101C36.5986 42.7989 36.736 43.8657 37.0388 44.3979C37.4602 45.1413 38.0775 45.6912 38.6186 45.6912C39.121 45.6912 39.229 45.3879 39.4731 45.2664C39.4731 45.2664 39.3475 44.6197 38.7818 44.4522C38.0928 44.2409 37.0306 43.4019 36.5986 42.6101Z" fill="white"/>
<path id="Vector_17" fill-rule="evenodd" clip-rule="evenodd" d="M38.4097 43.9696C38.5259 43.8776 38.6221 43.8186 38.7618 43.6545C38.7618 43.6545 39.2994 43.8528 39.7395 44.1525C40.1762 44.4523 40.6046 44.9632 40.8428 45.2287C40.8428 45.2287 40.182 45.3998 39.763 45.2075C39.763 45.2075 39.6116 44.5703 39.1409 44.2847C39.0411 44.2245 38.7125 44.1254 38.4097 43.9696ZM38.9543 43.4244C39.0576 43.2639 39.2677 42.9677 39.2196 42.5028C39.2196 42.5028 40.1445 43.0999 40.4226 43.3206C40.7032 43.5531 41.2806 44.1561 41.4109 44.3555C41.4109 44.3555 40.7079 44.1985 40.1703 44.0156C39.5811 43.8186 39.1738 43.5531 38.9543 43.4244ZM40.5236 44.4357C41.0236 44.6186 42.1398 44.7992 42.6129 44.9408C43.0824 45.0824 43.4239 45.3267 43.8723 45.8211C43.8723 45.8211 43.1798 46.017 42.8159 46.1326C42.8159 46.1326 42.229 45.7314 41.5858 45.4813C41.1703 45.3184 40.9637 44.8771 40.5236 44.4357ZM41.567 47.7871C41.4602 47.6655 41.3241 47.5275 41.4262 47.2466C41.5001 47.0377 41.9074 46.8135 42.1539 46.6943C42.5565 46.4996 43.6716 46.1964 44.0343 46.0878C44.0343 46.0878 44.215 46.3026 44.3124 46.5291C44.3535 46.6165 44.2948 46.7073 44.1422 46.7356C43.8289 46.7899 43.0824 46.6483 42.8981 46.7687C42.7032 46.8985 42.7725 47.0708 42.7725 47.2466C42.7725 47.2466 42.4344 47.0318 42.2138 47.0814C41.9203 47.1451 41.7349 47.2891 41.567 47.7871ZM42.5612 46.2141C42.479 46.2424 42.0448 46.3757 41.6199 46.6471C41.6199 46.6471 41.4321 46.574 41.3382 46.3993C41.2501 46.2318 40.8687 45.6606 40.5165 45.5851C40.5165 45.5851 40.8147 45.5556 40.9849 45.5001C40.9849 45.5001 41.3487 45.5945 41.6093 45.7007C41.8664 45.8069 42.1868 45.9674 42.56 46.2141H42.5612ZM39.6785 45.4931C39.7466 45.5249 39.8616 45.5816 40.121 45.5934C40.121 45.5934 41.1046 46.2801 41.2173 46.9693C41.3206 47.5546 41.013 47.8366 40.864 47.9086C40.7149 47.9865 40.0306 48.2709 39.5858 47.3398C39.5858 47.3398 40.344 47.5924 40.5518 47.2242C40.7572 46.8525 40.4226 46.3156 40.2172 46.161C39.9461 45.9533 39.459 45.8176 39.1609 45.8683C39.1609 45.8683 39.398 45.6394 39.6785 45.4931Z" fill="white"/>
<path id="Vector_18" fill-rule="evenodd" clip-rule="evenodd" d="M46.1071 53.3746C45.9874 52.8672 45.8582 52.3385 45.6282 51.85C45.1869 50.8988 44.0988 48.3712 41.8276 47.9228C41.6163 47.8826 42.0717 47.3469 42.2807 47.3764C42.4825 47.3988 42.8863 47.6655 43.0671 47.7871C43.0671 47.7871 43.0671 47.2466 43.0706 47.1486C43.0765 47.0472 43.1598 47.0177 43.2467 47.0188C43.3347 47.0212 43.8828 47.0177 44.0542 47.2171C44.5742 47.8236 45.4463 49.4521 45.9416 50.6628C46.4369 51.8747 46.7749 52.2488 47.2926 52.0612C47.8161 51.8747 48.1318 51.2694 49.0367 51.4523C49.3537 51.5184 49.7011 51.732 49.9793 52.047C49.9006 52.1957 49.802 52.3763 49.3807 52.3763C48.9511 52.3763 48.14 52.5556 47.6905 52.8766C47.235 53.1976 46.7609 53.3014 46.1071 53.3746ZM37.0528 45.5332C37.0058 45.9249 36.8169 46.2919 36.6126 46.6719C36.6126 46.6719 37.3016 49.8934 39.7994 50.1436C39.7994 50.1436 39.7465 49.4769 39.0094 48.9671C38.2676 48.4597 37.1631 47.6679 37.2429 46.4701C37.2429 46.4701 37.4401 46.5114 37.7934 46.961C38.1526 47.4094 38.9308 48.7063 40.1327 48.7158C40.1327 48.7158 39.9566 48.1092 39.4214 47.7587C38.8885 47.4094 38.2078 46.961 37.9014 46.4194C37.5962 45.8813 37.2735 45.6323 37.0528 45.532V45.5332ZM35.3978 48.6579C35.5457 49.0851 36.4871 50.4363 36.9002 50.8198C37.3157 51.2045 38.3216 52.224 38.8604 52.7338C38.8604 52.7338 37.3275 52.3491 36.4648 51.5573C36.4648 51.5573 35.8509 51.9172 35.4037 51.9172H35.3826C34.9342 51.9172 34.3203 51.5573 34.3203 51.5573C33.4588 52.3479 31.9282 52.7338 31.9282 52.7338C32.4646 52.224 33.4705 51.2045 33.8837 50.8198C34.3004 50.4363 35.2452 49.0851 35.3896 48.6579H35.3978Z" fill="white"/>
<path id="Vector_19" fill-rule="evenodd" clip-rule="evenodd" d="M35.4014 52.2358C35.7406 52.2358 36.061 52.099 36.243 52.0199C36.061 52.4058 35.7207 53.0052 35.3943 53.253H35.3897C35.0622 53.0052 34.7218 52.4058 34.5446 52.0199C34.7218 52.099 35.0422 52.2347 35.3826 52.2347H35.4014" fill="white"/>
<path id="Vector_20" fill-rule="evenodd" clip-rule="evenodd" d="M36.7147 59.4246L42.7079 50.9259L43.3182 51.372L43.3546 49.3741L41.5388 50.0763L42.1151 50.4952L36.7758 58.0676L34.0621 53.0901L33.7264 53.6093L31.3108 57.3029L30.7052 56.8934L30.6981 58.8582L32.5315 58.123L31.9165 57.71C32.2498 57.2002 33.5609 55.2001 33.9975 54.5262L36.7147 59.4234" fill="white"/>
<path id="Vector_21" fill-rule="evenodd" clip-rule="evenodd" d="M37.8075 56.0863C37.4026 55.4691 36.9965 54.8461 36.7887 54.5263C36.6373 54.813 36.3298 55.3736 35.9847 55.9931L35.5563 55.2166L36.723 53.0902L37.061 53.6094L38.2606 55.4444L37.8075 56.0863ZM39.0458 56.6386L39.4766 57.3029L40.0799 56.8935L40.0916 58.8582L38.2559 58.1231L38.8686 57.7101C38.8052 57.6133 38.7125 57.4622 38.5904 57.2793L39.0458 56.6386ZM51.1108 43.6686C50.6647 43.1754 49.9077 43.6026 49.1389 44.3141C48.3748 45.0269 47.8935 45.7562 48.3395 46.2482C48.7539 46.7049 49.5485 46.3143 50.3138 45.6051C51.0767 44.8912 51.5603 44.1607 51.1119 43.6675" fill="white"/>
<path id="Vector_22" fill-rule="evenodd" clip-rule="evenodd" d="M49.8772 52.4293C49.9042 52.4081 49.9241 52.3892 49.9476 52.368C50.3537 52.0092 50.5896 51.4522 50.5896 50.8457C50.5896 49.681 49.6518 48.7322 48.5004 48.7322C47.3478 48.7322 46.4135 49.681 46.4135 50.8457C46.4135 51.0038 46.444 51.2611 46.444 51.2611C46.3501 51.0817 46.0038 50.2746 45.9357 50.1247C46.0897 49.5596 46.4238 49.0608 46.8869 48.705C47.35 48.3493 47.9164 48.1561 48.4992 48.1552C49.5497 48.1552 50.4594 48.7735 50.8901 49.6704C50.7258 48.6024 50.207 47.6442 49.8338 47.2902C49.3889 46.8666 48.633 46.7297 48.633 46.7297C49.1272 46.8123 49.7809 46.5031 50.5134 45.8211C51.2059 45.1791 51.5662 44.6162 51.5838 44.1454C51.5416 44.8098 51.5603 45.1815 51.7446 45.7219C51.9981 46.4571 52.6883 47.8153 52.4442 49.3494C52.3092 50.192 51.7047 51.444 50.6988 52.4683C50.4817 52.6972 50.4007 53.0382 50.3772 53.2129C50.3772 53.2129 48.8877 53.2129 48.5332 53.2483C48.5332 53.2483 48.1823 53.2129 48.1882 52.9922C48.1952 52.768 48.3877 52.7114 48.5673 52.7114C48.7398 52.7114 49.4828 52.7302 49.8772 52.4293ZM40.0799 52.8648C38.8123 52.1626 37.5751 51.0841 36.4566 49.3553L36.2559 49.0154C36.5634 49.1535 36.9542 49.0556 36.9542 49.0556C36.9777 49.0851 37.0235 49.163 37.0458 49.209C38.0881 50.7619 39.2419 51.7449 40.4191 52.3857L40.0799 52.8648ZM41.648 52.9403C42.607 53.2896 43.5613 53.4784 44.465 53.6188C45.0578 53.7085 45.6353 53.7415 46.1846 53.7132C46.1698 53.8171 46.1862 53.9231 46.2315 54.0177C46.2315 54.0177 46.1224 54.1498 46.1224 54.295C45.5578 54.3162 44.978 54.2832 44.3782 54.1888C43.3946 54.0354 42.3476 53.8348 41.3041 53.4312L41.648 52.9403ZM48.4499 53.4194C48.6271 53.3899 49.1858 53.4064 49.518 53.4548C49.883 53.515 50.2997 53.5893 50.3443 53.7946C50.3842 53.9894 50.2528 54.1947 50.0697 54.4885C49.9511 54.6702 49.6788 54.5652 49.5321 54.5086C49.3795 54.4531 48.5203 53.987 48.3807 53.8359C48.2468 53.6814 48.1882 53.4642 48.4499 53.4194ZM47.5731 53.9917C47.6553 53.9422 47.7473 53.9115 47.8427 53.9017C47.938 53.8919 48.0343 53.9033 48.1248 53.9351C48.3572 54.0224 49.2011 54.5263 49.2598 54.7658C49.315 55.0018 49.1988 55.1175 49.0673 55.1718C48.9382 55.2249 48.7786 55.2756 48.6612 55.2874C48.5612 55.2899 48.4619 55.2694 48.371 55.2275C48.2801 55.1855 48.1999 55.1233 48.1365 55.0455C48.0262 54.9098 47.6353 54.4272 47.5731 54.3162C47.5191 54.21 47.491 54.0519 47.5731 53.9917ZM47.4745 54.5227C47.5954 54.6632 47.9393 55.0809 47.9781 55.1517C48.0203 55.2201 47.9569 55.3287 47.8501 55.3157C47.7421 55.3039 47.1623 55.2449 46.8278 55.0148C46.4933 54.7823 46.2714 54.3351 46.5027 54.1746C46.7268 54.013 47.0872 54.0885 47.4745 54.5227ZM47.2856 53.2388C47.3959 53.2129 47.8372 53.102 47.9311 53.2483C48.0485 53.43 47.964 53.6259 47.6224 53.7946C47.2855 53.9575 46.64 54.0908 46.5121 53.9138C46.3865 53.7309 46.5637 53.43 47.2856 53.2388Z" fill="white"/>
<mask id="mask0_40_911" style="mask-type:alpha" maskUnits="userSpaceOnUse" x="0" y="0" width="144" height="71">
<g id="b">
<path id="Vector_23" d="M0.799316 70.1372H143.627V0.124817H0.799316V70.1372Z" fill="white"/>
</g>
</mask>
<g mask="url(#mask0_40_911)">
<path id="Vector_24" fill-rule="evenodd" clip-rule="evenodd" d="M74.4366 70.5159H143.627V0.503601H74.4366V70.5159Z" fill="#CC003D"/>
<path id="Vector_25" fill-rule="evenodd" clip-rule="evenodd" d="M130.172 22.711C130.179 22.4018 130.235 20.2281 130.24 19.9355H130.764C132.785 19.9355 133.124 20.2966 133.312 22.7122H130.172V22.711ZM135.923 21.505C135.606 18.8026 134.353 17.396 131.39 17.396H127.623L127.111 32.6659H129.856C129.856 32.6659 130.11 25.5832 130.124 25.2481L133.592 25.2516C133.624 25.5596 134.144 32.6647 134.144 32.6647H136.977C136.977 32.6647 136.003 22.1752 135.924 21.505H135.923ZM96.8634 43.6816C96.8693 43.3725 96.9256 41.1988 96.9303 40.905L97.4233 40.8743C99.4445 40.8743 99.8142 41.2673 100.002 43.6828H96.8634V43.6816ZM102.615 42.4756C102.298 39.7733 101.042 38.3655 98.0806 38.3655H94.3128L93.8011 53.6353H96.5465C96.5465 53.6353 96.7988 46.5527 96.8141 46.2176L100.283 46.2211C100.314 46.5303 100.834 53.6353 100.834 53.6353H103.668C103.668 53.6353 102.693 43.1459 102.614 42.4756H102.615ZM82.0155 17.396V32.6611H84.7902V19.9343H88.2281V32.6611H91.0064V17.396H82.0155ZM111.366 22.7122H109.856C109.231 22.7122 108.768 22.5705 108.473 22.2862C108.264 22.0879 108.162 21.8189 108.162 21.4696V17.396H105.38V21.754C105.38 22.7594 105.774 23.609 106.549 24.284C107.313 24.9519 108.25 25.2894 109.336 25.2894H111.366V32.6611H114.143V17.396H111.366V22.7122ZM117.217 17.396V19.9343H119.523V32.6611H122.333V19.9343H124.638V17.396H117.217ZM113.143 38.3655V43.245H109.336V38.3655H106.566V53.6377H109.336V45.7833H113.144V53.6377H115.914V38.3655H113.143ZM85.7374 51.2741C85.4675 51.2741 84.7902 51.2104 84.7902 51.2104V45.8364C84.7902 45.8364 85.0074 45.7845 85.2468 45.7845C86.6541 45.7845 88.3173 45.7019 88.3173 48.5269C88.3173 51.1159 86.4898 51.2741 85.7374 51.2741ZM86.0743 43.3618C85.5954 43.3618 85.1705 43.3736 84.7902 43.3913V40.905H89.7693V38.3667H82.0155V53.6318H86.2269C90.4254 53.6318 91.0757 49.8557 91.0757 48.4573C91.0757 46.8029 90.4301 43.3618 86.0743 43.3618ZM96.3833 25.0557C96.4068 20.922 97.4162 19.5626 98.4808 19.5425C99.5442 19.5626 100.554 20.9232 100.577 25.0545V25.0557C100.554 29.0915 99.5442 30.4698 98.4808 30.491C97.4162 30.4698 96.4068 29.0915 96.3833 25.0557ZM103.341 24.4893C103.293 22.3062 102.922 20.7415 102.348 19.6299C101.445 17.73 100.002 17.022 98.5137 17.0031L98.5043 17.0019H98.4468C96.9585 17.0208 95.5171 17.73 94.6121 19.6299C94.037 20.7415 93.6673 22.3062 93.6192 24.4893L93.6133 24.9849V24.9837C93.6156 26.3443 93.7659 27.6625 94.057 28.7257C94.8199 31.8528 96.5805 32.9597 98.4174 32.9939L98.4562 32.9951H98.5043L98.543 32.9939C100.38 32.9597 102.141 31.854 102.903 28.7257C103.197 27.6636 103.346 26.3443 103.347 24.9837L103.341 24.4893ZM129.735 53.633L126.396 44.6847C127.09 44.1619 127.628 43.1612 127.869 42.1641C128.103 41.1964 128.409 38.3655 128.409 38.3655H125.678C125.634 39.1136 125.58 39.861 125.516 40.6076C125.39 42.0661 124.964 43.4126 123.49 43.4126H122.351C122.349 43.291 122.351 38.3655 122.351 38.3655H119.574V53.6377H122.351V45.8836C122.351 45.8836 123.82 45.886 124.027 45.8836L126.755 53.633H129.736H129.735Z" fill="white"/>
</g>
</g>
</g>
</g>
<defs>
<clipPath id="clip0_40_911">
<rect width="143.197" height="70.803" fill="white" transform="translate(0.799316 0.0929565)"/>
</clipPath>
</defs>
</svg>
