<svg width="17" height="17" viewBox="0 0 17 17" fill="none" xmlns="http://www.w3.org/2000/svg">
<path d="M13.41 8.46997C13.41 8.20475 13.5154 7.9504 13.7029 7.76286C13.8905 7.57533 14.1448 7.46997 14.41 7.46997C14.6753 7.46997 14.9296 7.57533 15.1171 7.76286C15.3047 7.9504 15.41 8.20475 15.41 8.46997V13.47C15.41 14.0004 15.1993 14.5091 14.8242 14.8842C14.4492 15.2593 13.9405 15.47 13.41 15.47H3.41003C2.8796 15.47 2.37089 15.2593 1.99582 14.8842C1.62075 14.5091 1.41003 14.0004 1.41003 13.47V3.46997C1.41003 2.93954 1.62075 2.43083 1.99582 2.05576C2.37089 1.68068 2.8796 1.46997 3.41003 1.46997H7.41003C7.67525 1.46997 7.9296 1.57533 8.11714 1.76286C8.30468 1.9504 8.41003 2.20475 8.41003 2.46997C8.41003 2.73519 8.30468 2.98954 8.11714 3.17708C7.9296 3.36461 7.67525 3.46997 7.41003 3.46997H3.41003V13.47H13.41V8.46997ZM13.117 1.76297L15.117 3.76297C15.3045 3.9505 15.4098 4.20481 15.4098 4.46997C15.4098 4.73513 15.3045 4.98944 15.117 5.17697L9.11703 11.177C8.92954 11.3645 8.67523 11.4699 8.41003 11.47H6.41003C6.14482 11.47 5.89046 11.3646 5.70293 11.1771C5.51539 10.9895 5.41003 10.7352 5.41003 10.47V8.46997C5.41009 8.20478 5.51548 7.95046 5.70303 7.76297L11.703 1.76297C11.8906 1.5755 12.1449 1.47018 12.41 1.47018C12.6752 1.47018 12.9295 1.5755 13.117 1.76297ZM7.41003 8.88397V9.46997H7.99603L12.996 4.46997L12.41 3.88397L7.41003 8.88397Z" fill="#9299A2"/>
</svg>
